<?xml version="1.0" encoding="utf-8"?>
<!-- Generator: Adobe Illustrator 19.0.0, SVG Export Plug-In . SVG Version: 6.00 Build 0)  -->
<svg version="1.1" id="Layer_1" xmlns="http://www.w3.org/2000/svg" xmlns:xlink="http://www.w3.org/1999/xlink" x="0px" y="0px"
	 viewBox="0 0 577 577" style="enable-background:new 0 0 577 577;" xml:space="preserve">
<style type="text/css">
	.st0{fill:#0058A2;}
</style>
<g id="_x33_5_x2C__Bathroom_x2C__Shower_x2C__Water">
	<g id="XMLID_324_">
		<path id="XMLID_433_" class="st0" d="M460.3,337.8c0-12.9-10.5-23.4-23.4-23.4h-8v-9.8c9.2-3.1,15.4-12.3,15.4-22.1
			c0-9.8-6.8-19.1-15.4-22.1c0-0.6,1.2-10.5-6.2-19.7L405.5,219c-8-9.8-21.5-13.5-33.2-8.6l-24.6,9.8c-4.3,1.8-6.2,6.2-4.3,10.5
			c1.8,4.3,6.2,6.2,10.5,4.3l25.2-9.8c5.5-2.5,11.1-0.6,14.8,3.7l17.2,21.5c3.7,4.3,2.5,9.2,3.1,9.8c-9.2,3.1-15.4,12.3-15.4,22.1
			c0,9.8,6.8,19.1,15.4,22.1v9.2H295.4c3.7-26.5-24-46.1-48-33.8c-9.8-8-22.1-11.7-35.1-9.8c-8.6-12.3-22.1-19.1-36.9-19.1
			c-32.6,0-54.1,32.6-41.8,62.7h-9.8c-12.9,0-23.4,10.5-23.4,23.4c0,11.1,7.4,20.3,17.2,22.8l24.6,86.1c4.3,14.1,17.2,24,32,24h10.5
			l-1.8,0.6c-3.7,1.8-5.5,6.8-3.7,10.5c1.8,3.7,6.8,5.5,10.5,3.7l29.5-14.8h113.8c30.8,14.8,30.1,15.4,33.2,15.4
			c3.1,0,5.5-1.8,6.8-4.3c1.8-3.7,0.6-8.6-3.7-10.5l-1.8-0.6h17.8c14.8,0,28.3-9.8,32-24l24.6-86.1
			C452.9,357.5,460.3,348.2,460.3,337.8z M421.5,275c4.3,0,8,3.7,8,8c0,4.3-3.7,8-8,8c-4.3,0-8-3.7-8-8
			C413.5,278.7,417.2,275,421.5,275z M174.8,267c11.1,0,21.5,6.2,26.5,16c1.8,3.1,5.5,4.9,9.2,3.7c11.1-3.1,22.8,0,30.1,8.6
			c3.1,3.1,7.4,3.1,11.1,0.6c12.9-11.1,32.6,1.2,27.7,17.8H150.8C136.7,294.7,150.8,267,174.8,267z M403.1,442.4
			c-1.8,7.4-9.2,12.9-17.2,12.9H173.6c-8,0-14.8-5.5-17.2-12.9L133,361.2h292.8l-4.3,16c-0.6,0,8.6,0-236.2,0c-4.3,0-8,3.7-8,8
			c0,4.3,3.7,8,8,8h231.9L403.1,442.4z M436.9,345.8H123.1c-4.3,0-8-3.7-8-8c0-4.3,3.7-8,8-8c63.4,0,251,0,313.8,0c4.3,0,8,3.7,8,8
			C444.9,342.1,441.2,345.8,436.9,345.8z"/>
		<polygon id="XMLID_54_" class="st0" points="408.6,156.9 397.5,145.8 386.4,156.9 397.5,168.6 		"/>
		<path id="XMLID_53_" class="st0" d="M442.4,209.8c3.1-3.1,3.1-8,0-11.1c-3.1-3.1-8-3.1-11.1,0c-3.1,3.1-3.1,8,0,11.1
			C434.4,212.9,439.4,212.9,442.4,209.8z"/>
		<path id="XMLID_52_" class="st0" d="M301.5,139.1c3.1-3.1,3.1-8,0-11.1c-3.1-3.1-8-3.1-11.1,0c-3.1,3.1-3.1,8,0,11.1
			C293.5,142.1,298.5,142.1,301.5,139.1z"/>
		<path id="XMLID_51_" class="st0" d="M340.3,186.4c3.1-3.1,3.1-8,0-11.1c-3.1-3.1-8-3.1-11.1,0c-3.1,3.1-3.1,8,0,11.1
			C332.3,189.5,337.2,189.5,340.3,186.4z"/>
		<path id="XMLID_50_" class="st0" d="M296.6,246.7c1.2,3.1,4.3,4.3,6.8,4.3c3.1,0,3.7-1.2,19.1-8.6c3.7-1.8,5.5-6.8,3.7-10.5
			c-1.8-3.7-6.8-5.5-10.5-3.7l-16,8C296,238.7,294.8,243,296.6,246.7z"/>
		<path id="XMLID_49_" class="st0" d="M334.8,275c4.3,0,8-3.7,8-8v-15.4c0-4.3-3.7-8-8-8c-4.3,0-8,3.7-8,8V267
			C327.4,271.3,330.5,275,334.8,275z"/>
		<path id="XMLID_48_" class="st0" d="M369.8,281.8c3.7-1.8,5.5-6.8,3.7-10.5l-8-15.4c-1.8-3.7-6.8-5.5-10.5-3.7
			c-3.7,1.8-5.5,6.8-3.7,10.5l8,15.4C361.2,282.4,366.1,283.6,369.8,281.8z"/>
		<path id="XMLID_345_" class="st0" d="M138.5,212.3h-8c-4.3,0-8,3.7-8,8c0,4.3,3.7,8,8,8c36.3,0,81.8,0,117.5,0c4.3,0,8-3.7,8-8
			c0-4.3-3.1-8-7.4-8h-8v-86.1h8c4.3,0,8-3.7,8-8c0-4.3-3.7-8-8-8c-36.3,0-81.2,0-117.5,0c-4.3,0-8,3.7-8,8c0,4.3,3.7,8,8,8h7.4
			V212.3L138.5,212.3z M154.5,164.9h27.7v47.4h-27.7V164.9z M197.6,212.3v-47.4h27.7v47.4H197.6L197.6,212.3z M225.3,149.5h-27.7
			v-23.4h27.7V149.5L225.3,149.5z M182.2,125.5v23.4h-27.7v-23.4H182.2z"/>
	</g>
</g>
</svg>
