<?xml version="1.0" encoding="utf-8"?>
<!-- Generator: Adobe Illustrator 19.0.0, SVG Export Plug-In . SVG Version: 6.00 Build 0)  -->
<svg version="1.1" id="Layer_1" xmlns="http://www.w3.org/2000/svg" xmlns:xlink="http://www.w3.org/1999/xlink" x="0px" y="0px"
	 viewBox="0 0 577 577" style="enable-background:new 0 0 577 577;" xml:space="preserve">
<style type="text/css">
	.st0{fill:#0058A2;}
</style>
<g id="B_-_95_x2C__helmet_x2C__engineer_x2C__Building_x2C__construction">
	<g id="XMLID_422_">
		<g id="XMLID_457_">
			<path id="XMLID_290_" class="st0" d="M256.2,125.9L256.2,125.9c-1.6,0-3.2-1.6-3.2-3.2l0,0c0-0.8,0-1.6,0-1.6
				c-0.8-1.6,0-4,2.4-4.8h0.8c0.8,0,2.4,0,3.2,0.8c0.8,0.8,1.6,1.6,1.6,3.2v3.2l0,0C260.2,124.3,258.6,125.9,256.2,125.9z"/>
		</g>
		<g id="XMLID_453_">
			<path id="XMLID_454_" class="st0" d="M494.2,318.7H99.4c-1.6,0-3.3-1.6-3.3-3.2v-4.8c0-38.6,11.4-75.5,31.7-107.6
				c20.3-31.3,48.7-56.2,82.9-72.3c0.8-0.8,2.4-0.8,3.3,0c0.8,0.8,1.6,1.6,1.6,3.2v44.2c0,4.8,4.1,9.6,9.7,9.6H244
				c4.9,0,9.7-4,9.7-8.8c0-1.6,1.6-3.2,3.3-3.2l0,0c1.6,0,3.2,1.6,3.2,3.2v30.5c0,11.2,8.9,20.1,20.3,20.1H313
				c11.4,0,20.3-8.8,20.3-20.1v-30.5c0-1.6,1.6-3.2,3.2-3.2l0,0c1.6,0,3.2,1.6,3.2,3.2c0,4.8,4.1,8.8,9.7,8.8h18.7
				c4.9,0,9.7-4,9.7-9.6v-44.2c0-1.6,0.8-2.4,1.6-3.2c0.8-0.8,2.4-0.8,3.2,0c34.1,16.1,62.6,41,82.9,72.3
				c21.1,32.1,31.7,69.1,31.7,107.6v4.8C497.5,317.1,495.8,318.7,494.2,318.7z M103.4,311.4h386.7v-1.6
				c0-71.5-41.4-137.3-104.8-170.3v38.6c0,8.8-7.3,16.9-17.1,16.9h-18.7c-3.2,0-6.5-0.8-9.7-3.2v16.9c0,15.3-12.2,27.3-27.6,27.3
				h-31.7c-15.4,0-27.6-12-27.6-27.3v-16.9c-2.4,1.6-5.7,3.2-9.7,3.2h-18.7c-8.9,0-17.1-7.2-17.1-16.9v-38.6
				c-64.2,32.9-104.8,98.8-104.8,170.3L103.4,311.4z"/>
		</g>
		<g id="XMLID_451_">
			<path id="XMLID_287_" class="st0" d="M337.4,125.9L337.4,125.9c-2.4,0-3.3-1.6-3.3-3.2v-3.2c0-0.8,0.8-2.4,1.6-3.2
				c0.8-0.8,2.4-0.8,3.3,0h0.8c1.6,0.8,2.4,2.4,2.4,4.8c0,0.8,0,1.6,0,1.6C340.7,124.3,339,125.9,337.4,125.9z"/>
		</g>
		<g id="XMLID_447_">
			<path id="XMLID_448_" class="st0" d="M498.3,378.1h-403c-11.4,0-21.1-9.6-21.1-20.9v-24.1c0-11.2,9.8-20.9,21.1-20.9h403
				c11.4,0,21.1,9.6,21.1,20.9v24.1C519.4,368.5,509.7,378.1,498.3,378.1z M95.3,318.7c-7.3,0-13.8,6.4-13.8,13.7v24.1
				c0,7.2,6.5,13.7,13.8,13.7h403c7.3,0,13.8-6.4,13.8-13.7v-24.1c0-7.2-6.5-13.7-13.8-13.7H95.3z"/>
		</g>
		<g id="XMLID_443_">
			<path id="XMLID_444_" class="st0" d="M313,235.9h-32.5c-15.4,0-27.6-12-27.6-27.3v-92.4c0-15.3,12.2-27.3,27.6-27.3H313
				c15.4,0,27.6,12,27.6,27.3v92.4C340.7,223.1,328.5,235.9,313,235.9z M280.5,96.2c-11.4,0-20.3,8.8-20.3,20.1v92.4
				c0,11.2,8.9,20.1,20.3,20.1H313c11.4,0,20.3-8.8,20.3-20.1v-92.4c0-11.2-8.9-20.1-20.3-20.1H280.5z"/>
		</g>
		<g id="XMLID_441_">
			<path id="XMLID_282_" class="st0" d="M384.5,280.1h-43.9c-1.6,0-3.2-1.6-3.2-3.2c0-1.6,1.6-3.2,3.2-3.2h43.9
				c1.6,0,3.2,1.6,3.2,3.2C387.8,278.5,386.2,280.1,384.5,280.1z"/>
		</g>
		<g id="XMLID_439_">
			<path id="XMLID_281_" class="st0" d="M303.3,280.1H153c-1.6,0-3.2-1.6-3.2-3.2c0-1.6,1.6-3.2,3.2-3.2h150.3
				c1.6,0,3.2,1.6,3.2,3.2C306.5,278.5,305.7,280.1,303.3,280.1z"/>
		</g>
		<g id="XMLID_435_">
			<path id="XMLID_436_" class="st0" d="M243.2,195h-18.7c-8.9,0-17.1-7.2-17.1-16.9v-55.4c0-8.8,7.3-16.9,17.1-16.9h18.7
				c8.9,0,17.1,7.2,17.1,16.9v55.4C260.2,187.8,252.9,195,243.2,195z M225.3,113.1c-4.9,0-9.7,4-9.7,9.6v55.4c0,4.8,4.1,9.6,9.7,9.6
				H244c4.9,0,9.7-4,9.7-9.6v-55.4c0-4.8-4.1-9.6-9.7-9.6H225.3z"/>
		</g>
		<g id="XMLID_431_">
			<path id="XMLID_432_" class="st0" d="M368.3,195h-18.7c-8.9,0-17.1-7.2-17.1-16.9v-55.4c0-8.8,7.3-16.9,17.1-16.9h18.7
				c8.9,0,17.1,7.2,17.1,16.9v55.4C385.4,187.8,378,195,368.3,195z M350.4,113.1c-4.9,0-9.7,4-9.7,9.6v55.4c0,4.8,4.1,9.6,9.7,9.6
				h18.7c4.9,0,9.8-4,9.8-9.6v-55.4c0-4.8-4.1-9.6-9.8-9.6H350.4z"/>
		</g>
		<g id="XMLID_427_">
			<path id="XMLID_428_" class="st0" d="M296.8,173.3c-17.9,0-32.5-14.5-32.5-32.1s14.6-32.1,32.5-32.1c17.9,0,32.5,14.5,32.5,32.1
				S314.7,173.3,296.8,173.3z M296.8,116.3c-13.8,0-25.2,11.2-25.2,24.9s11.4,24.9,25.2,24.9c13.8,0,25.2-11.2,25.2-24.9
				S310.6,116.3,296.8,116.3z"/>
		</g>
		<g id="XMLID_423_">
			<path id="XMLID_424_" class="st0" d="M296.8,157.2c-8.9,0-16.2-7.2-16.2-16.1s7.3-16.1,16.2-16.1c8.9,0,16.3,7.2,16.3,16.1
				S305.7,157.2,296.8,157.2z M296.8,132.3c-4.9,0-8.9,4-8.9,8.8c0,4.8,4.1,8.8,8.9,8.8c4.9,0,8.9-4,8.9-8.8
				C305.7,136.4,301.7,132.3,296.8,132.3z"/>
		</g>
	</g>
</g>
</svg>
