<?xml version="1.0" encoding="utf-8"?>
<!-- Generator: Adobe Illustrator 19.0.0, SVG Export Plug-In . SVG Version: 6.00 Build 0)  -->
<svg version="1.1" id="Layer_1" xmlns="http://www.w3.org/2000/svg" xmlns:xlink="http://www.w3.org/1999/xlink" x="0px" y="0px"
	 viewBox="0 0 577 577" style="enable-background:new 0 0 577 577;" xml:space="preserve">
<style type="text/css">
	.st0{fill:#0058A2;}
</style>
<g id="B_-_87_x2C__blueprint_x2C__Architecture_x2C__blue_print_x2C__construction_x2C__paper_x2C__plan">
	<g id="XMLID_425_">
		<g id="XMLID_536_">
			<path id="XMLID_537_" class="st0" d="M152.8,308.3c-0.8,0-2.4,0-3.2-0.8c-7.3-1.6-12.2-9.6-9.7-16.9L183.7,130
				c0-1.6,1.6-2.4,2.4-2.4c1.6,0,2.4,0,3.3,0.8c4.1,4.8,9.7,8,16.2,8c0.8,0,2.4,0.8,2.4,1.6c0,0.8,0.8,1.6,0.8,3.2l-42.2,156.6
				C164.2,304.3,158.5,308.3,152.8,308.3z M187.7,138l-42.2,155c-0.8,3.2,0.8,7.2,4.9,8c3.3,0.8,7.3-0.8,8.1-4.8l42.3-152.6
				C195.8,142.8,191.8,140.4,187.7,138z"/>
		</g>
		<g id="XMLID_532_">
			<path id="XMLID_533_" class="st0" d="M260,308.3c-6.5,0-12.2-4-13.8-10.4L204,141.2c0-0.8,0-2.4,0.8-3.2c0.8-0.8,1.6-1.6,2.4-1.6
				c6.5,0,12.2-3.2,16.2-8c0.8-0.8,2.4-1.6,4.1-0.8c1.6,0,2.4,1.6,2.4,3.2l0,0l43.9,160.6c0.8,3.2,0.8,7.2-1.6,10.4
				c-1.6,3.2-4.9,5.6-8.1,6.4C262.5,308.3,261.7,308.3,260,308.3z M212.1,143.6l41.4,152.6c0.8,3.2,4.9,5.6,8.1,4.8
				c1.6-0.8,3.2-1.6,4.1-3.2c0.8-1.6,0.8-3.2,0.8-4.8l-42.2-155C221,140.4,217,142,212.1,143.6z"/>
		</g>
		<g id="XMLID_528_">
			<path id="XMLID_529_" class="st0" d="M206.4,143.6c-17.1,0-30.1-13.7-30.1-30.5c0-16.9,13.8-29.7,30.1-29.7
				c17.1,0,30.9,13.7,30.9,29.7C236.5,130.8,223.5,143.6,206.4,143.6z M206.4,90.6c-13,0-22.7,10.4-22.7,22.5
				c0,12.8,10.6,23.3,22.7,23.3c13,0,23.6-10.4,23.6-23.3C229.2,101.1,219.4,90.6,206.4,90.6z"/>
		</g>
		<g id="XMLID_524_">
			<path id="XMLID_525_" class="st0" d="M206.4,130c-8.9,0-16.3-7.2-16.3-16.1c0-8.8,7.3-16.1,16.3-16.1s16.2,7.2,16.2,16.1
				C222.7,122.8,215.4,130,206.4,130z M206.4,105.1c-4.9,0-8.9,4-8.9,8.8c0,4.8,4.1,8.8,8.9,8.8c4.9,0,8.9-4,8.9-8.8
				C215.4,109.1,211.3,105.1,206.4,105.1z"/>
		</g>
		<g id="XMLID_520_">
			<path id="XMLID_521_" class="st0" d="M213.7,92.2h-0.8c-1.6-0.8-4.1-0.8-5.7-0.8c-2.4,0-4.1,0-5.7,0.8c-0.8,0-2.4,0-3.3-0.8
				c-0.8-0.8-1.6-1.6-1.6-3.2V70.5c0-5.6,4.9-10.4,10.6-10.4s10.6,4.8,10.6,10.4v17.7c0,0.8-0.8,2.4-1.6,3.2
				C215.4,91.4,214.5,92.2,213.7,92.2z M206.4,83.4c0.8,0,2.4,0,3.2,0V70.5c0-1.6-1.6-3.2-3.2-3.2c-1.6,0-3.3,1.6-3.3,3.2v12.9
				C204,83.4,205.6,83.4,206.4,83.4z"/>
		</g>
		<g id="XMLID_518_">
			<path id="XMLID_88_" class="st0" d="M143,332.4h-0.8c-1.6-0.8-3.3-2.4-2.4-4l6.5-24.1c0.8-1.6,2.4-3.2,4.1-2.4
				c1.6,0.8,3.3,2.4,2.4,4l-6.5,24.1C146.3,331.6,144.7,332.4,143,332.4z"/>
		</g>
		<g id="XMLID_516_">
			<path id="XMLID_87_" class="st0" d="M269.8,332.4c-1.6,0-3.2-0.8-3.2-2.4l-6.5-24.1c-0.8-1.6,0.8-4,2.4-4.8
				c1.6-0.8,4.1,0.8,4.9,2.4l6.5,24.1c0.8,1.6-0.8,4-2.4,4.8C269.8,332.4,269.8,332.4,269.8,332.4z"/>
		</g>
		<g id="XMLID_512_">
			<path id="XMLID_513_" class="st0" d="M214.5,272.1h-14.6c-1.6,0-3.2-1.6-3.2-3.2v-14.5c0-1.6,1.6-3.2,3.2-3.2h14.6
				c1.6,0,3.2,1.6,3.2,3.2v14.5C218.6,270.5,216.2,272.1,214.5,272.1z M204,264.9h7.3v-7.2H204V264.9z"/>
		</g>
		<g id="XMLID_510_">
			<path id="XMLID_84_" class="st0" d="M158.5,236c-1.6,0-2.4-0.8-3.2-1.6c-4.1-8-6.5-16.9-6.5-25.7c0-1.6,1.6-3.2,3.3-3.2
				c1.6,0,4.1,0,4.1,2.4c0,8,1.6,16.1,5.7,22.5c0.8,1.6,0,4-1.6,4.8C160.1,235.2,159.3,236,158.5,236z"/>
		</g>
		<g id="XMLID_508_">
			<path id="XMLID_83_" class="st0" d="M199.9,264.1L199.9,264.1c-9.7-1.6-19.5-4.8-26.8-10.4c-1.6-0.8-1.6-3.2-0.8-4.8
				c0.8-1.6,3.3-1.6,4.9-0.8c5.7,4,12.2,7.2,19.5,8v-2.4c0-1.6,1.6-3.2,3.2-3.2h14.6c1.6,0,3.2,1.6,3.2,3.2v2.4
				c6.5-1.6,12.2-4,17.9-8c1.6-0.8,4.1-0.8,4.9,0.8c0.8,1.6,0.8,4-0.8,4.8c-7.3,4.8-16.3,8.8-25.2,9.6c-0.8,0-2.4,0-3.3-0.8
				c-0.8-0.8-1.6-1.6-1.6-2.4v-3.2h-7.3v3.2c0,0.8-0.8,2.4-1.6,2.4C201.5,264.1,200.7,264.1,199.9,264.1z"/>
		</g>
		<g id="XMLID_506_">
			<path id="XMLID_82_" class="st0" d="M254.3,236c-0.8,0-0.8,0-1.6-0.8c-1.6-0.8-2.4-3.2-1.6-4.8c4.1-7.2,5.7-15.3,5.7-23.3
				c0-1.6,1.6-3.2,3.3-3.2c1.6,0,3.3,1.6,3.3,3.2c0,9.6-2.4,18.5-6.5,26.5C256.8,235.2,256,236,254.3,236z"/>
		</g>
		<g id="XMLID_504_">
			<path id="XMLID_81_" class="st0" d="M228.3,343.6c-68.2,0-106.4-15.3-126.7-31.3c-26-19.3-28.4-41-28.4-41.8c0-1.6,1.6-4,3.3-4
				c1.6,0,4.1,1.6,4.1,3.2c0,0,2.4,20.1,26,36.9c29.3,21.7,94.2,43.4,236.4,18.5c1.6,0,4.1,0.8,4.1,3.2c0,2.4-0.8,4-3.3,4
				C298.2,340.4,260,343.6,228.3,343.6z"/>
		</g>
		<g id="XMLID_502_">
			<path id="XMLID_80_" class="st0" d="M495.7,110.7c-1.6,0-3.3-1.6-3.3-3.2c0-0.8,0-2.4,0-3.2c0-0.8,0-2.4,0.8-3.2
				c0.8-0.8,1.6-1.6,2.4-1.6l0,0c1.6,0,3.2,1.6,3.2,3.2v4C498.9,109.1,497.3,110.7,495.7,110.7z"/>
		</g>
		<g id="XMLID_498_">
			<path id="XMLID_499_" class="st0" d="M447.7,428h-43.1c-1.6,0-3.3-1.6-3.3-3.2V282.6l-12.2-24.1l-11.4,24.1v142.2
				c0,1.6-1.6,3.2-3.2,3.2H76.4c-1.6,0-3.3-1.6-3.3-3.2V103.5c0-1.6,1.6-3.2,3.3-3.2h104.8c1.6,0,2.4,0.8,3.3,1.6
				c0.8,0.8,0.8,2.4,0,3.2c-0.8,2.4-1.6,5.6-1.6,8.8c0,12.9,10.6,23.3,22.7,23.3c13,0,23.6-10.4,23.6-23.3c0-3.2-0.8-6.4-1.6-8.8
				c-0.8-0.8,0-2.4,0-3.2c0.8-0.8,1.6-1.6,3.3-1.6H442c0.8,0,2.4,0.8,2.4,1.6c0.8,0.8,0.8,1.6,0.8,3.2c0,0.8,0,1.6,0,3.2v252.2
				c5.7-6.4,13.8-11.2,22.8-11.2c15.4,0,27.6,12,30.1,27.3c0,0.8,0,0.8,0,1.6l0,0C498.9,405.5,476.2,428,447.7,428z M408.7,420.7h39
				c23.6,0,43.1-18.5,43.9-41.8l0,0c-0.8-12.8-10.6-23.3-22.8-23.3c-12.2,0-21.9,10.4-22.7,23.3c0,1.6-1.6,3.2-3.3,3.2l0,0
				c-1.6,0-3.2-1.6-3.2-3.2c0-0.8,0-0.8,0-1.6V107.5l0,0H236.5c0.8,2.4,0.8,4,0.8,6.4c0,16.9-13.8,30.5-30.9,30.5
				c-17.1,0-30.1-13.7-30.1-30.5c0-2.4,0-4.8,0.8-6.4H80.5v314h290.1V281.8c0-0.8,0-0.8,0-1.6L386,248c0.8-1.6,1.6-2.4,3.3-2.4l0,0
				c1.6,0,2.4,0.8,3.2,2.4l15.4,32.1c0,0.8,0,0.8,0,1.6v138.9H408.7z"/>
		</g>
		<g id="XMLID_494_">
			<path id="XMLID_495_" class="st0" d="M495.7,382.2c-1.6,0-3.3-1.6-3.3-3.2c-0.8-12.8-10.6-23.3-22.7-23.3s-21.9,10.4-22.7,23.3
				c0,1.6-1.6,3.2-3.3,3.2l0,0c-1.6,0-3.2-1.6-3.2-3.2c0-0.8,0-0.8,0-1.6V107.5c0-17.7,13.8-31.3,30.1-31.3
				c16.3,0,30.1,14.5,30.1,31.3v269.1v0.8c0,0,0,0,0,0.8C498.9,380.6,497.3,382.2,495.7,382.2L495.7,382.2z M468.8,348.4
				c8.9,0,17.1,4,22.8,11.2V107.5c0-13.7-10.6-24.1-22.8-24.1c-12.2,0-22.7,11.2-22.7,24.1v252.2
				C451.8,352.5,459.9,348.4,468.8,348.4z"/>
		</g>
		<g id="XMLID_492_">
			<path id="XMLID_75_" class="st0" d="M389.2,440c-1.6,0-3.3-1.6-3.3-3.2V301.1c0-1.6,1.6-3.2,3.3-3.2c1.6,0,3.2,1.6,3.2,3.2V436
				C393.3,438.4,391.7,440,389.2,440z"/>
		</g>
		<g id="XMLID_488_">
			<path id="XMLID_489_" class="st0" d="M404.7,456.9h-30.9c-1.6,0-3.2-1.6-3.2-3.2V281.8c0-0.8,0-0.8,0-1.6L386,248
				c0.8-1.6,1.6-2.4,3.3-2.4l0,0c1.6,0,2.4,0.8,3.2,2.4l15.4,32.1c0,0.8,0,0.8,0,1.6v171.1C408.7,455.3,407.1,456.9,404.7,456.9z
				 M377.8,449.6h23.6V282.6l-12.2-24.1l-11.4,24.1V449.6z"/>
		</g>
		<g id="XMLID_484_">
			<path id="XMLID_485_" class="st0" d="M404.7,469.7h-30.9c-1.6,0-3.2-1.6-3.2-3.2v-12.9c0-1.6,1.6-3.2,3.2-3.2h30.9
				c1.6,0,3.3,1.6,3.3,3.2v12.9C408.7,468.1,407.1,469.7,404.7,469.7z M377.8,462.5h23.6v-5.6h-23.6V462.5z"/>
		</g>
		<g id="XMLID_480_">
			<path id="XMLID_481_" class="st0" d="M396.5,500.2h-14.6c-6.5,0-12.2-5.6-12.2-12v-22.5c0-1.6,1.6-3.2,3.2-3.2h30.9
				c1.6,0,3.3,1.6,3.3,3.2v22.5C408.7,494.6,403,500.2,396.5,500.2z M377.8,469.7V489c0,2.4,2.4,4.8,4.9,4.8h14.6
				c2.4,0,4.9-2.4,4.9-4.8v-19.3H377.8z"/>
		</g>
		<g id="XMLID_476_">
			<path id="XMLID_477_" class="st0" d="M404.7,303.5h-30.9c-1.6,0-3.2-1.6-3.2-3.2v-17.7c0-0.8,0-0.8,0-1.6l15.4-32.1
				c0.8-1.6,1.6-2.4,3.3-2.4l0,0c1.6,0,2.4,0.8,3.2,2.4l15.4,32.1c0,0.8,0,0.8,0,1.6v17.7C408.7,301.9,407.1,303.5,404.7,303.5z
				 M377.8,296.2h23.6v-12.9l-12.2-24.1l-11.4,24.1V296.2z"/>
		</g>
		<g id="XMLID_472_">
			<path id="XMLID_66_" class="st0" d="M477.8,225.6c-1.6,0-3.3-1.6-3.3-3.2V115.5c0-1.6,1.6-3.2,3.3-3.2c1.6,0,3.2,1.6,3.2,3.2v106
				C481,224,479.4,225.6,477.8,225.6z"/>
		</g>
		<g id="XMLID_470_">
			<path id="XMLID_65_" class="st0" d="M477.8,319.5c-1.6,0-3.3-1.6-3.3-3.2v-56.2c0-1.6,1.6-3.2,3.3-3.2c1.6,0,3.2,1.6,3.2,3.2
				v56.2C481,317.9,479.4,319.5,477.8,319.5z"/>
		</g>
		<g id="XMLID_466_">
			<path id="XMLID_64_" class="st0" d="M268.2,448.8H108.1c-1.6,0-3.3-1.6-3.3-3.2c0-1.6,1.6-3.2,3.3-3.2h159.2
				c1.6,0,3.2,1.6,3.2,3.2C270.6,447.2,269.8,448.8,268.2,448.8z"/>
		</g>
		<g id="XMLID_464_">
			<path id="XMLID_63_" class="st0" d="M317.7,461.7H192.6c-1.6,0-3.3-1.6-3.3-3.2c0-1.6,1.6-3.2,3.3-3.2h125.1
				c1.6,0,3.2,1.6,3.2,3.2C321,460.1,320.2,461.7,317.7,461.7z"/>
		</g>
		<g id="XMLID_458_">
			<path id="XMLID_62_" class="st0" d="M355.1,461.7h-23.6c-1.6,0-3.2-1.6-3.2-3.2c0-1.6,1.6-3.2,3.2-3.2h23.6
				c1.6,0,3.3,1.6,3.3,3.2C358.3,460.1,356.7,461.7,355.1,461.7z"/>
		</g>
		<g id="XMLID_450_">
			<path id="XMLID_61_" class="st0" d="M139,461.7H79.7c-1.6,0-3.3-1.6-3.3-3.2c0-1.6,1.6-3.2,3.3-3.2H139c1.6,0,3.3,1.6,3.3,3.2
				C142.2,460.1,141.4,461.7,139,461.7z"/>
		</g>
		<g id="XMLID_440_">
			<path id="XMLID_60_" class="st0" d="M442,142H275.5c-1.6,0-3.2-1.6-3.2-3.2c0-1.6,1.6-3.2,3.2-3.2h167.4c1.6,0,3.3,1.6,3.3,3.2
				C446.1,140.4,444.5,142,442,142z"/>
		</g>
	</g>
</g>
</svg>
