<?xml version="1.0" encoding="utf-8"?>
<!-- Generator: Adobe Illustrator 19.0.0, SVG Export Plug-In . SVG Version: 6.00 Build 0)  -->
<svg version="1.1" id="Layer_1" xmlns="http://www.w3.org/2000/svg" xmlns:xlink="http://www.w3.org/1999/xlink" x="0px" y="0px"
	 viewBox="0 0 577 577" style="enable-background:new 0 0 577 577;" xml:space="preserve">
<style type="text/css">
	.st0{fill:#0058A2;}
</style>
<g id="B_-_91_x2C__Door_x2C__window_x2C__Building_x2C__construction_x2C__repair">
	<g id="XMLID_460_">
		<g id="XMLID_562_">
			<path id="XMLID_563_" class="st0" d="M470.5,433.2H142.3c-1.6,0-3.3-1.6-3.3-3.2V64.6c0-1.6,1.6-3.2,3.3-3.2h328.2
				c1.6,0,3.2,1.6,3.2,3.2v364.6C473.8,431.6,472.1,433.2,470.5,433.2z M146.3,426h320.9V68.6H146.3V426z"/>
		</g>
		<g id="XMLID_558_">
			<path id="XMLID_559_" class="st0" d="M499.8,480.6H113c-1.6,0-3.3-1.6-3.3-3.2V430c0-1.6,1.6-3.2,3.3-3.2h386.7
				c1.6,0,3.2,1.6,3.2,3.2v47.4C503,479,501.4,480.6,499.8,480.6z M117.1,473.4h379.4v-40.2H117.1V473.4z"/>
		</g>
		<g id="XMLID_554_">
			<path id="XMLID_555_" class="st0" d="M492.5,201.9h-21.9c-1.6,0-3.3-1.6-3.3-3.2v-65.9c0-1.6,1.6-3.2,3.3-3.2h21.9
				c1.6,0,3.2,1.6,3.2,3.2v65.9C496.5,200.3,494.9,201.9,492.5,201.9z M473.8,194.7h14.6v-58.6h-14.6V194.7z"/>
		</g>
		<g id="XMLID_550_">
			<path id="XMLID_551_" class="st0" d="M492.5,352.9h-21.9c-1.6,0-3.3-1.6-3.3-3.2v-65.9c0-1.6,1.6-3.2,3.3-3.2h21.9
				c1.6,0,3.2,1.6,3.2,3.2v65.9C496.5,351.3,494.9,352.9,492.5,352.9z M473.8,345.7h14.6V287h-14.6V345.7z"/>
		</g>
		<g id="XMLID_546_">
			<path id="XMLID_547_" class="st0" d="M433.9,433.2h-85.3c-1.6,0-3.3-1.6-3.3-3.2V99.1c0-1.6,1.6-3.2,3.3-3.2h85.3
				c1.6,0,3.3,1.6,3.3,3.2V430C437.2,431.6,435.6,433.2,433.9,433.2z M352.7,426h78V102.3h-78V426z"/>
		</g>
		<g id="XMLID_542_">
			<path id="XMLID_543_" class="st0" d="M348.6,433.2H178.8c-1.6,0-3.2-1.6-3.2-3.2V99.1c0-1.6,1.6-3.2,3.2-3.2h169.8
				c1.6,0,3.2,1.6,3.2,3.2V430C352.7,431.6,351.1,433.2,348.6,433.2z M182.9,426h162.5V102.3H182.9V426z"/>
		</g>
		<g id="XMLID_534_">
			<path id="XMLID_539_" class="st0" d="M433.9,355.3h-85.3c-1.6,0-3.3-1.6-3.3-3.2v-253c0-1.6,1.6-3.2,3.3-3.2h85.3
				c1.6,0,3.3,1.6,3.3,3.2v253C437.2,353.7,435.6,355.3,433.9,355.3z M352.7,348.1h78V102.3h-78V348.1z"/>
		</g>
		<g id="XMLID_526_">
			<path id="XMLID_143_" class="st0" d="M247.9,226.8c-0.8,0-1.6,0-1.6-0.8c-1.6-0.8-2.4-3.2-1.6-4.8l50.4-86.7
				c0.8-1.6,3.2-2.4,4.9-1.6c1.6,0.8,2.4,3.2,1.6,4.8l-50.4,86.7C250.3,226,248.7,226.8,247.9,226.8z"/>
		</g>
		<g id="XMLID_517_">
			<path id="XMLID_142_" class="st0" d="M226.8,262.1c-0.8,0-1.6,0-1.6-0.8c-1.6-0.8-2.4-3.2-1.6-4.8l13.8-23.3
				c0.8-1.6,3.3-2.4,4.9-1.6c1.6,0.8,2.4,3.2,1.6,4.8L230,259.7C229.2,261.3,227.6,262.1,226.8,262.1z"/>
		</g>
		<g id="XMLID_514_">
			<path id="XMLID_141_" class="st0" d="M257.6,261.3c-0.8,0-1.6,0-1.6-0.8c-1.6-0.8-2.4-3.2-1.6-4.8l31.7-53.8
				c0.8-1.6,3.2-2.4,4.9-1.6c1.6,0.8,2.4,3.2,1.6,4.8l-31.7,53.8C260.1,260.5,258.5,261.3,257.6,261.3z"/>
		</g>
		<g id="XMLID_503_">
			<path id="XMLID_140_" class="st0" d="M390.1,273.4c-0.8,0-1.6,0-1.6-0.8c-1.6-0.8-2.4-3.2-1.6-4.8l18.7-31.3
				c0.8-1.6,3.2-2.4,4.9-1.6c1.6,0.8,2.4,3.2,1.6,4.8L393.3,271C393.3,273.4,391.7,273.4,390.1,273.4z"/>
		</g>
		<g id="XMLID_496_">
			<path id="XMLID_139_" class="st0" d="M385.2,307.9c-0.8,0-1.6,0-1.6-0.8c-1.6-0.8-2.4-3.2-1.6-4.8l18.7-31.3
				c0.8-1.6,3.3-2.4,4.9-1.6c1.6,0.8,2.4,3.2,1.6,4.8l-18.7,31.3C387.6,307.1,386,307.9,385.2,307.9z"/>
		</g>
		<g id="XMLID_482_">
			<path id="XMLID_483_" class="st0" d="M520.9,501.5h-429c-1.6,0-3.2-1.6-3.2-3.2v-20.9c0-1.6,1.6-3.2,3.2-3.2h429
				c1.6,0,3.3,1.6,3.3,3.2v20.9C524.1,499.9,522.5,501.5,520.9,501.5z M96,494.3h421.7v-13.7H96V494.3z"/>
		</g>
		<g id="XMLID_467_">
			<path id="XMLID_136_" class="st0" d="M499.8,462.1H154.5c-1.6,0-3.3-1.6-3.3-3.2c0-1.6,1.6-3.2,3.3-3.2h345.3
				c1.6,0,3.2,1.6,3.2,3.2C503,460.5,501.4,462.1,499.8,462.1z"/>
		</g>
	</g>
</g>
</svg>
