<?xml version="1.0" encoding="utf-8"?>
<!-- Generator: Adobe Illustrator 19.0.0, SVG Export Plug-In . SVG Version: 6.00 Build 0)  -->
<svg version="1.1" id="Layer_1" xmlns="http://www.w3.org/2000/svg" xmlns:xlink="http://www.w3.org/1999/xlink" x="0px" y="0px"
	 viewBox="0 0 577 577" style="enable-background:new 0 0 577 577;" xml:space="preserve">
<style type="text/css">
	.st0{fill:#0058A2;}
</style>
<g id="B_-_77_x2C___plug_x2C__electric_x2C__electric_x2C__cord_x2C__charge">
	<g id="XMLID_12_">
		<g id="XMLID_325_">
			<path id="XMLID_326_" class="st0" d="M306.4,375.4c-0.8,0-1.6,0-2.4-0.8l-30.1-29.7c-0.8-0.8-0.8-1.6-0.8-2.4
				c0-0.8,0-1.6,0.8-2.4l47.1-46.6l-15.4-15.3l-47.1,46.6c-0.8,0.8-1.6,0.8-2.4,0.8l0,0c-0.8,0-1.6,0-2.4-0.8l-12.2-12.9l-47.9,47.4
				c-0.8,0.8-3.2,1.6-4.1,0.8c-10.6-5.6-17.9-16.9-17.9-28.9V128c0-8.8,3.3-16.9,9.7-23.3c6.5-6.4,14.6-9.6,23.6-9.6h205.6
				c18.7,0,33.3,14.5,33.3,32.9v203.2c0,18.5-14.6,32.9-33.3,32.9h-49.6c-1.6,0-2.4-0.8-3.3-2.4c-0.8-1.6,0-3.2,0.8-4l15.4-15.3
				l-15.4-15.3l-47.1,46.6C308.9,375.4,307.3,375.4,306.4,375.4z M282.1,342.4l24.4,24.1l47.1-46.6c0.8-0.8,1.6-0.8,2.4-0.8l0,0
				c0.8,0,1.6,0,2.4,0.8l21.1,20.9c1.6,1.6,1.6,4,0,4.8l-11.4,11.2h40.6c14.6,0,26-11.2,26-25.7V128c0-14.5-11.4-25.7-26-25.7H204.1
				c-6.5,0-13.8,2.4-18.7,7.2c-4.9,4.8-7.3,11.2-7.3,18.5v203.2c0,8.8,4.1,16.1,11.4,20.9l48.8-48.2c0.8-0.8,1.6-0.8,2.4-0.8l0,0
				c0.8,0,1.6,0,2.4,0.8l12.2,12.9l47.1-46.6c0.8-0.8,1.6-0.8,2.4-0.8l0,0c0.8,0,1.6,0,2.4,0.8l21.1,20.9c1.6,1.6,1.6,4,0,4.8
				L282.1,342.4z"/>
		</g>
		<g id="XMLID_321_">
			<path id="XMLID_322_" class="st0" d="M307.3,334.4c-5.7,0-12.2-0.8-17.9-1.6c-1.6,0-2.4-0.8-3.3-2.4c-0.8-1.6,0-2.4,0.8-4
				l34.9-34.5l-15.4-15.3l-44.7,44.2c-0.8,0.8-3.3,1.6-4.1,0.8c-4.9-2.4-9.7-5.6-14.6-9.6l0,0l-1.6-1.6c-0.8,0-0.8,0-1.6-0.8
				c-23.6-20.1-37.4-49-37.4-80.3c0-28.1,11.4-54.6,30.9-74.7c20.3-20.1,47.1-30.5,75.6-30.5c58.5,0,106.4,47.4,106.4,105.2
				C412.9,287.8,365.8,334.4,307.3,334.4z M297.5,327.2c3.3,0,6.5,0.8,9.7,0.8c54.4,0,99.1-44.2,99.1-98c0-53.8-44.7-98-99.1-98
				c-26.8,0-51.2,10.4-69.9,28.9c-18.7,18.5-29.3,43.4-29.3,69.1c0,28.1,12.2,54.6,33.3,73.9c0.8,0,1.6,0.8,1.6,0.8l3.2,3.2
				c3.3,2.4,7.3,4.8,11.4,7.2l45.5-45c0.8-0.8,1.6-0.8,2.4-0.8l0,0c0.8,0,1.6,0,2.4,0.8l21.1,20.9c1.6,1.6,1.6,4,0,4.8L297.5,327.2z
				"/>
		</g>
		<g id="XMLID_317_">
			<path id="XMLID_318_" class="st0" d="M240.6,482.2c-19.5,0-38.2-7.2-52.8-21.7l0,0c-29.2-28.9-29.2-76.3,0-106l51.2-50.6
				c1.6-1.6,4.1-1.6,4.9,0l101.6,100.4c1.6,1.6,1.6,4,0,4.8l-51.2,51.4C279.6,475,260.1,482.2,240.6,482.2z M192.7,454.9
				L192.7,454.9c26.8,26.5,69.9,26.5,96.7,0l47.9-47.4l-96.7-95.6l-47.9,47.4C165.9,385.8,165.9,428.4,192.7,454.9z"/>
		</g>
		<g id="XMLID_313_">
			<path id="XMLID_314_" class="st0" d="M277.2,345.6c-0.8,0-1.6,0-2.4-0.8L253.6,324c-0.8-0.8-0.8-1.6-0.8-2.4c0-0.8,0-1.6,0.8-2.4
				l50.4-49.8c0.8-0.8,1.6-0.8,2.4-0.8l0,0c0.8,0,1.6,0,2.4,0.8l21.1,20.9c1.6,1.6,1.6,4,0,4.8l-50.4,49.8
				C278.8,345.6,278,345.6,277.2,345.6z M260.9,321.6l15.4,15.3l44.7-44.2l-15.4-15.3L260.9,321.6z"/>
		</g>
		<g id="XMLID_164_">
			<path id="XMLID_198_" class="st0" d="M327.6,396.3L327.6,396.3c-0.8,0-1.6,0-2.4-0.8L304,374.6c-1.6-1.6-1.6-4,0-4.8l50.4-49.8
				c0.8-0.8,1.6-0.8,2.4-0.8l0,0c0.8,0,1.6,0,2.4,0.8l21.1,20.9c1.6,1.6,1.6,4,0,4.8L330,395.4C329.2,395.4,328.4,396.3,327.6,396.3
				z M312.1,371.4l15.4,15.3l44.7-44.2l-15.4-15.3L312.1,371.4z"/>
		</g>
		<g id="XMLID_160_">
			<path id="XMLID_161_" class="st0" d="M240.6,432.4c-6.5,0-13-2.4-17.9-7.2c-4.9-4.8-7.3-11.2-7.3-17.7s2.4-12.9,7.3-17.7
				c4.9-4.8,11.4-7.2,17.9-7.2c6.5,0,13,2.4,17.9,7.2l0,0c9.7,9.6,9.7,25.7,0,36.1C254.4,430,247.9,432.4,240.6,432.4z M240.6,389
				c-4.9,0-9.7,1.6-13,5.6c-3.2,3.2-5.7,8-5.7,12.9s1.6,9.6,5.7,12.9c3.3,3.2,8.1,5.6,13,5.6c4.9,0,9.7-1.6,13-5.6
				c7.3-7.2,7.3-18.5,0-25.7C250.4,391.4,245.5,389,240.6,389z"/>
		</g>
		<g id="XMLID_158_">
			<path id="XMLID_260_" class="st0" d="M83.8,535.2L83.8,535.2c-2.4,0-4.1-1.6-3.3-4c0,0,2.4-31.3,44.7-33.7
				c37.4-2.4,60.9-41,60.9-41.8c0.8-1.6,3.2-2.4,4.9-1.6c1.6,0.8,2.4,3.2,1.6,4.8c-0.8,1.6-26,42.6-67.4,45
				c-35.8,2.4-38.2,26.5-38.2,27.3C87.9,533.6,86.3,535.2,83.8,535.2z"/>
		</g>
		<g id="XMLID_21_">
			<path id="XMLID_22_" class="st0" d="M285.3,278.2h-37.4c-1.6,0-3.3-1.6-3.3-3.2V238c0-1.6,1.6-3.2,3.3-3.2h37.4
				c1.6,0,3.2,1.6,3.2,3.2V275C288.6,276.6,286.9,278.2,285.3,278.2z M251.2,271h30.1v-29.7h-30.1V271z"/>
		</g>
		<g id="XMLID_17_">
			<path id="XMLID_18_" class="st0" d="M366.6,278.2h-37.4c-1.6,0-3.3-1.6-3.3-3.2V238c0-1.6,1.6-3.2,3.3-3.2h37.4
				c1.6,0,3.3,1.6,3.3,3.2V275C369.8,276.6,368.2,278.2,366.6,278.2z M332.4,271h30.1v-29.7h-30.1V271z"/>
		</g>
		<g id="XMLID_13_">
			<path id="XMLID_14_" class="st0" d="M325.1,212.3h-37.4c-1.6,0-3.2-1.6-3.2-3.2v-36.9c0-1.6,1.6-3.2,3.2-3.2h37.4
				c1.6,0,3.3,1.6,3.3,3.2v36.9C329.2,210.7,327.6,212.3,325.1,212.3z M291,205.1h30.1v-29.7H291V205.1z"/>
		</g>
	</g>
</g>
</svg>
