<?xml version="1.0" encoding="utf-8"?>
<!-- Generator: Adobe Illustrator 19.0.0, SVG Export Plug-In . SVG Version: 6.00 Build 0)  -->
<svg version="1.1" id="Layer_1" xmlns="http://www.w3.org/2000/svg" xmlns:xlink="http://www.w3.org/1999/xlink" x="0px" y="0px"
	 viewBox="0 0 577 577" style="enable-background:new 0 0 577 577;" xml:space="preserve">
<style type="text/css">
	.st0{fill:#0058A2;}
</style>
<g id="B_-_79_x2C__gloves_x2C__Building_x2C__construction_x2C__repair">
	<g id="XMLID_20_">
		<g id="XMLID_420_">
			<path id="XMLID_186_" class="st0" d="M378.4,413H250c-1.6,0-3.2-1.6-3.2-3.2s1.6-3.2,3.2-3.2h128.4c1.6,0,3.2,1.6,3.2,3.2
				S380.8,413,378.4,413z"/>
		</g>
		<g id="XMLID_416_">
			<path id="XMLID_185_" class="st0" d="M223.2,473.2c-1.6,0-2.4-0.8-3.3-1.6c-0.8-1.6-0.8-4,1.6-4.8l69.9-40.2
				c1.6-0.8,4.1-0.8,4.9,1.6c0.8,1.6,0.8,4-1.6,4.8l-69.9,40.2C224.8,473.2,224,473.2,223.2,473.2z"/>
		</g>
		<g id="XMLID_411_">
			<path id="XMLID_184_" class="st0" d="M261.4,272.5c-1.6,0-3.3-1.6-3.3-3.2v-87.5c0-6.4-5.7-12-12.2-12c-6.5,0-12.2,5.6-12.2,12
				v87.5c0,1.6-1.6,3.2-3.3,3.2c-1.6,0-3.3-1.6-3.3-3.2v-87.5c0-10.4,8.9-19.3,19.5-19.3c10.6,0,19.5,8.8,19.5,19.3v87.5
				C265.4,270.8,263,272.5,261.4,272.5z"/>
		</g>
		<g id="XMLID_408_">
			<path id="XMLID_183_" class="st0" d="M293.1,230.7c-1.6,0-3.2-1.6-3.2-3.2V87.7c0-6.4-5.7-12-12.2-12c-6.5,0-12.2,5.6-12.2,12
				v138.9c0,1.6-1.6,3.2-3.3,3.2c-1.6,0-3.3-1.6-3.3-3.2V87.7c0-10.4,8.9-19.3,19.5-19.3c10.6,0,19.5,8.8,19.5,19.3v138.9
				C297.1,229.1,295.5,230.7,293.1,230.7z"/>
		</g>
		<g id="XMLID_403_">
			<path id="XMLID_182_" class="st0" d="M325.6,216.2c-1.6,0-3.3-1.6-3.3-3.2V66.8c0-7.2-5.7-12.8-12.2-12.8
				c-6.5,0-12.2,5.6-12.2,12.8v145.4c0,1.6-1.6,3.2-3.3,3.2c-1.6,0-3.2-1.6-3.2-3.2V66.8c0-11.2,8.9-20.1,19.5-20.1
				c10.6,0,19.5,8.8,19.5,20.1v145.4C328.8,214.6,327.2,216.2,325.6,216.2z"/>
		</g>
		<g id="XMLID_399_">
			<path id="XMLID_181_" class="st0" d="M357.3,230.7c-1.6,0-3.3-1.6-3.3-3.2V94.2c0-6.4-5.7-11.2-12.2-11.2
				c-6.5,0-12.2,4.8-12.2,11.2v132.5c0,1.6-1.6,3.2-3.3,3.2c-1.6,0-3.2-1.6-3.2-3.2V94.2c0-10.4,8.9-18.5,19.5-18.5
				c10.6,0,19.5,8,19.5,18.5v132.5C361.3,229.1,359.7,230.7,357.3,230.7z"/>
		</g>
		<g id="XMLID_395_">
			<path id="XMLID_180_" class="st0" d="M388.9,269.2c-1.6,0-3.2-1.6-3.2-3.2v-139c0-6.4-5.7-12-12.2-12c-6.5,0-12.2,5.6-12.2,12
				v139c0,1.6-1.6,3.2-3.3,3.2c-1.6,0-3.2-1.6-3.2-3.2v-139c0-10.4,8.9-19.3,19.5-19.3c10.6,0,19.5,8.8,19.5,19.3v139
				C393,267.6,391.4,269.2,388.9,269.2z"/>
		</g>
		<g id="XMLID_387_">
			<path id="XMLID_389_" class="st0" d="M380,425.9H235.4c-0.8,0-2.4-0.8-2.4-1.6c-0.8-0.8-0.8-1.6-0.8-3.2
				c7.3-48.2,2.4-73.1-1.6-97.2c-2.4-14.5-4.9-28.1-4.9-45.8v-96.4c0-10.4,8.9-19.3,19.5-19.3c4.9,0,8.9,1.6,12.2,4V87.7
				c0-10.4,8.9-19.3,19.5-19.3c4.9,0,8.9,1.6,12.2,4v-5.6c0-11.2,8.9-20.1,19.5-20.1c10.6,0,19.5,8.8,19.5,20.1v12.9
				c3.3-2.4,7.3-4,12.2-4c10.6,0,19.5,8,19.5,18.5V111c3.3-2.4,8.1-4,12.2-4l0,0c10.6,0,19.5,8.8,19.5,19.3v151.8
				c0,16.9-2.4,31.3-4.9,46.6c-4.1,24.9-8.9,52.2-4.1,97.2c0,0.8,0,2.4-0.8,2.4C381.6,425.1,380.8,425.9,380,425.9z M240.3,418.6
				h135.7c-4.1-43.4,0.8-70.7,4.9-94.8c2.4-15.3,4.9-28.9,4.9-45V127.1c0-6.4-5.7-12-12.2-12l0,0c-3.2,0-6.5,1.6-8.9,3.2
				c-2.4,2.4-3.2,5.6-3.2,8.8c0,1.6-1.6,3.2-3.3,3.2c-1.6,0-3.2-1.6-3.2-3.2V95c0-6.4-5.7-11.2-12.2-11.2c-6.5,0-12.2,4.8-12.2,11.2
				c0,1.6-1.6,3.2-3.2,3.2c-1.6,0-3.2-1.6-3.2-3.2V67.7c0-7.2-5.7-12.9-12.2-12.9c-6.5,0-12.2,5.6-12.2,12.9v20.9
				c0,1.6-1.6,3.2-3.2,3.2c-1.6,0-3.3-1.6-3.3-3.2c0-6.4-5.7-12-12.2-12c-6.5,0-12.2,5.6-12.2,12v94c0,1.6-1.6,3.2-3.3,3.2
				c-1.6,0-3.3-1.6-3.3-3.2c0-6.4-5.7-12-12.2-12c-6.5,0-12.2,5.6-12.2,12v96.4c0,16.9,2.4,30.5,4.9,44.2
				C241.9,347.1,245.9,372,240.3,418.6z"/>
		</g>
		<g id="XMLID_379_">
			<path id="XMLID_381_" class="st0" d="M293.9,380.1h-55.2c-0.8,0-1.6,0-2.4-0.8c-0.8-0.8-0.8-1.6-0.8-2.4
				c0-17.7-1.6-31.3-4.1-44.2c0-0.8,0-2.4,0.8-3.2c0.8-0.8,1.6-1.6,2.4-1.6l0,0h58.5c5.7,0,12.2,1.6,17.1,4c0.8,0.8,1.6,1.6,1.6,3.2
				c0,1.6-0.8,2.4-1.6,3.2c-5.7,3.2-8.9,9.6-8.9,16.1c0,6.4,3.2,12,8.9,16.1c0.8,0.8,1.6,1.6,1.6,3.2s-0.8,2.4-1.6,3.2
				C306.1,379.3,300.4,380.1,293.9,380.1z M242.7,372.9h51.2c2.4,0,5.7,0,8.1-0.8c-4.9-4.8-7.3-11.2-7.3-17.7
				c0-6.4,2.4-12.9,7.3-17.7c-2.4-0.8-4.9-0.8-8.1-0.8h-54.4C241.9,346.3,242.7,358.4,242.7,372.9z"/>
		</g>
		<g id="XMLID_371_">
			<path id="XMLID_373_" class="st0" d="M377.6,380.1h-55.2c-15.4,0-27.6-11.2-27.6-25.7c0-14.5,12.2-25.7,27.6-25.7h60.1
				c0.8,0,2.4,0.8,2.4,1.6c0.8,0.8,0.8,1.6,0.8,3.2c-2.4,12.9-4.1,27.3-4.9,44.2C381.6,378.5,380,380.1,377.6,380.1z M322.3,335.9
				c-11.4,0-20.3,8-20.3,18.5c0,10.4,8.9,18.5,20.3,18.5h52c0.8-14.5,2.4-26.5,4.1-37.8h-56.1V335.9z"/>
		</g>
		<g id="XMLID_365_">
			<path id="XMLID_173_" class="st0" d="M146,357.6c-1.6,0-2.4-0.8-3.3-1.6l-43.9-75.5c-2.4-4.8-3.3-9.6-1.6-14.5
				c1.6-4.8,4.9-8.8,8.9-12l0,0c8.9-4.8,21.1-1.6,26.8,7.2l43.9,75.5c0.8,1.6,0.8,4-1.6,4.8c-1.6,0.8-4.1,0.8-4.9-1.6l-43.9-75.5
				c-3.3-5.6-11.4-8-17.1-4.8l0,0c-2.4,1.6-4.9,4-5.7,7.2c-0.8,3.2-0.8,6.4,1.6,9.6l43.9,75.5c0.8,1.6,0.8,4-1.6,4.8
				C146.8,357.6,146.8,357.6,146,357.6z"/>
		</g>
		<g id="XMLID_357_">
			<path id="XMLID_172_" class="st0" d="M152.5,305.4c-1.6,0-2.4-0.8-3.2-1.6L78.6,183.3c-2.4-4.8-3.3-9.6-1.6-14.5
				c1.6-4.8,4.9-8.8,8.9-12c9.7-5.6,21.1-2.4,26.8,7.2l70.7,120.5c0.8,1.6,0.8,4-1.6,4.8c-1.6,0.8-4.1,0.8-4.9-1.6l-70.7-120.5
				c-3.3-5.6-10.6-8-17.1-4.8c-2.4,1.6-4.9,4-5.7,7.2c-0.8,3.2-0.8,6.4,0.8,8.8L154.9,299c0.8,1.6,0.8,4-1.6,4.8
				C153.3,305.4,153.3,305.4,152.5,305.4z"/>
		</g>
		<g id="XMLID_349_">
			<path id="XMLID_171_" class="st0" d="M172.8,276.5c-1.6,0-2.4-0.8-3.3-1.6L95.6,148.8c-5.7-9.6-2.4-21.7,6.5-27.3
				c9.7-5.6,21.9-1.6,26.8,8l73.9,126.1c0.8,1.6,0.8,4-1.6,4.8c-1.6,0.8-4.1,0.8-4.9-1.6l-73.9-126.1c-3.3-6.4-11.4-8-17.1-4.8
				c-5.7,3.2-8.1,11.2-4.1,16.9l73.9,126.1c0.8,1.6,0.8,4-1.6,4.8C173.6,276.5,172.8,276.5,172.8,276.5z"/>
		</g>
		<g id="XMLID_341_">
			<path id="XMLID_170_" class="st0" d="M207.8,274.1c-1.6,0-2.4-0.8-3.3-1.6l-66.6-114.9c-2.4-4-3.2-8.8-1.6-13.7
				c1.6-4.8,4.9-9.6,9.7-12c4.9-2.4,9.7-3.2,15.4-2.4c4.9,1.6,8.9,4,11.4,8.8l60.9,104.4c0.8,1.6,0.8,4-1.6,4.8
				c-1.6,0.8-4.1,0.8-4.9-1.6l-60.9-104.4c-1.6-2.4-4.1-4-7.3-4.8c-3.3-0.8-6.5,0-9.7,1.6c-3.3,1.6-4.9,4.8-5.7,7.2
				c-0.8,3.2-0.8,5.6,0.8,8L211,268.4c0.8,1.6,0.8,4-1.6,4.8C208.6,273.3,208.6,274.1,207.8,274.1z"/>
		</g>
		<g id="XMLID_333_">
			<path id="XMLID_169_" class="st0" d="M229.7,247.6c-1.6,0-2.4-0.8-3.3-1.6l-44.7-76.3c-2.4-4.8-3.3-9.6-1.6-14.5
				c1.6-4.8,4.9-9.6,8.9-12c4.1-2.4,9.7-3.2,14.6-1.6c4.9,1.6,9.7,4.8,12.2,8.8l17.1,28.9c0.8,1.6,0,4-1.6,4.8
				c-1.6,0.8-4.1,0-4.9-1.6l-17.1-28.9c-1.6-3.2-4.1-4.8-7.3-5.6c-3.3-0.8-6.5,0-8.9,1.6c-3.2,1.6-4.9,4-5.7,7.2
				c-1.6,2.4-1.6,5.6,0,8.8l44.7,76.3c0.8,1.6,0.8,4-1.6,4.8C230.5,247.6,229.7,247.6,229.7,247.6z"/>
		</g>
		<g id="XMLID_316_">
			<path id="XMLID_320_" class="st0" d="M228.9,486.9h-0.8c-0.8,0-1.6-0.8-2.4-2.4c-17.9-45-34.9-64.3-50.4-83.5
				c-9.7-11.2-18.7-21.7-27.6-37l-48.7-83.5c-2.4-4.8-3.3-9.6-1.6-14.5c1.6-4.8,4.9-8.8,8.9-12c4.1-2.4,8.9-3.2,13-2.4l-39.8-68.3
				c-2.4-4.8-3.3-9.6-1.6-14.5c1.6-4.8,4.9-8.8,8.9-12c4.1-2.4,8.9-3.2,13-2.4l-3.2-4.8c-5.7-9.6-2.4-21.7,6.5-27.3
				c9.7-5.6,21.9-1.6,26.8,8l6.5,11.2c1.6-4,4.9-7.2,8.9-9.6c4.9-2.4,9.7-3.2,15.4-2.4c4.9,1.6,8.9,4,11.4,8.8l8.9,15.3
				c1.6-4,4.9-7.2,8.1-9.6c4.1-2.4,9.7-3.2,14.6-1.6c4.9,1.6,9.8,4.8,12.2,8.8l17.1,28.9c0,0.8,0.8,1.6,0.8,2.4v0.8v96.4
				c0,16.9,2.4,30.5,4.9,44.2c4.1,24.1,8.1,49,2.4,95.6h95.9c1.6,0,3.2,0.8,3.2,2.4c0.8,1.6,0,3.2-1.6,4l-107.2,61
				C229.7,486.9,229.7,486.9,228.9,486.9z M115.9,258c-2.4,0-4.1,0.8-6.5,1.6c-3.2,1.6-4.9,4-5.7,7.2c-0.8,3.2-0.8,6.4,1.6,9.6
				l48.8,83.5c8.9,14.5,17.1,24.9,26.8,36.1c15.4,18.5,32.5,38.6,50.4,81.9l91.8-52.2h-87.7c-0.8,0-2.4-0.8-2.4-1.6
				c-0.8-0.8-0.8-1.6-0.8-3.2c7.3-48.2,2.4-73.1-1.6-97.2c-2.4-14.5-4.9-28.1-4.9-45.8v-96.4l0,0l-16.2-28.1
				c-1.6-3.2-4.1-4.8-7.3-5.6c-3.3-0.8-6.5,0-8.9,1.6c-3.2,1.6-4.9,4-5.7,7.2c-1.6,2.4-1.6,5.6,0,8.8l0,0c0.8,1.6,0.8,4-1.6,4.8
				c-1.6,0.8-4.1,0.8-4.9-1.6l0,0l-16.2-28.1c-1.6-2.4-4.1-4-7.3-4.8c-3.2-0.8-6.5,0-9.7,1.6c-3.2,1.6-4.9,4.8-5.7,7.2
				c-0.8,3.2-0.8,5.6,0.8,8l0,0c0.8,1.6,0.8,4-1.6,4.8c-2.4,0.8-4.1,0.8-4.9-1.6l0,0l-13.8-24.1c-3.3-6.4-11.4-8-17.1-4.8
				c-5.7,3.2-8.1,11.2-4.1,16.9l10.6,18.5l0,0l0,0c0.8,1.6,0.8,4-1.6,4.8c-1.6,0.8-4.1,0.8-4.9-1.6c-3.2-5.6-10.6-8-17.1-4.8
				c-2.4,1.6-4.9,4-5.7,7.2c-0.8,3.2-0.8,6.4,0.8,8.8l47.1,81.1c0.8,1.6,0.8,4-1.6,4.8c-1.6,0.8-4.1,0.8-4.9-1.6
				C124.1,260.4,120,258,115.9,258z"/>
		</g>
		<g id="XMLID_24_">
			<path id="XMLID_159_" class="st0" d="M209.4,445.9h-0.8c-0.8,0-1.6-0.8-2.4-1.6c-8.9-15.3-17.9-26.5-25.2-36.1
				c-0.8-0.8-0.8-1.6-0.8-3.2c0-0.8,0.8-1.6,1.6-2.4l51.2-28.9c1.6-0.8,4.1-2.4,5.7-2.4c0.8-0.8,2.4,0,3.2,0c0.8,0,0.8,1.6,0.8,2.4
				c0,13.7-0.8,28.1-3.3,45h4.1c1.6,0,3.3,0.8,3.3,2.4c0.8,1.6,0,3.2-1.6,4l-34.9,20.1C210.2,445.9,209.4,445.9,209.4,445.9z
				 M188.3,406.6c6.5,8.8,13.8,18.5,21.9,30.5l22.8-12.9c-0.8-0.8-0.8-1.6-0.8-3.2c2.4-15.3,3.3-28.9,3.3-41.8l0,0L188.3,406.6z"/>
		</g>
	</g>
</g>
</svg>
