<?xml version="1.0" encoding="utf-8"?>
<!-- Generator: Adobe Illustrator 19.0.0, SVG Export Plug-In . SVG Version: 6.00 Build 0)  -->
<svg version="1.1" id="Layer_1" xmlns="http://www.w3.org/2000/svg" xmlns:xlink="http://www.w3.org/1999/xlink" x="0px" y="0px"
	 viewBox="0 0 577 577" style="enable-background:new 0 0 577 577;" xml:space="preserve">
<style type="text/css">
	.st0{fill:#0058A2;}
</style>
<g id="_x36__x2C__City_x2C__Danger_x2C__Design_x2C__Emergency_x2C__Fire">
	<g id="XMLID_391_">
		<path id="XMLID_463_" class="st0" d="M350.3,209.1H247.3c-4.7,0-8.8,4-8.8,8.8v145.5c0,4.7,4,8.8,8.8,8.8h21.6
			c-13.5,22.9,3.4,51.9,29.6,51.9c26.3,0,43.1-29,29.6-51.9h21.6c4.7,0,8.8-4,8.8-8.8V217.9C359.1,212.5,355.1,209.1,350.3,209.1z
			 M299.1,406.5c-9.4,0-16.8-8.1-16.8-16.8c0-6.1,3.4-12.1,8.8-14.8v6.1c0,4.7,4,8.8,8.8,8.8c4.7,0,8.8-4,8.8-8.8v-6.1
			c5.4,2.7,8.8,8.8,8.8,14.8C316,399.1,308.6,406.5,299.1,406.5z M342.3,355.3H256V225.9h86.2V355.3z"/>
		<path id="XMLID_452_" class="st0" d="M407.6,209.1l-14.1,4.7v-50.5c0-12.8-10.8-23.6-23.6-23.6h-45.1v-17.5h8.8
			c4.7,0,8.8-4,8.8-8.8v-8.8c0-23.6-19.5-43.1-43.1-43.1c-23.6,0-43.1,19.5-43.1,43.1v9.4c0,4.7,4,8.8,8.8,8.8h8.8v17.5h-45.1
			c-12.8,0-23.6,10.8-23.6,23.6v50.5l-14.1-4.7c-5.4-2-11.5,2-11.5,8.1v77.5c0,4.7,4,8.8,8.8,8.8h16.8v122.6
			c0,12.8,10.8,23.6,23.6,23.6h28.3v17.5c0,4.7,4,8.8,8.8,8.8h68.7c4.7,0,8.8-4,8.8-8.8v-17.5h28.3c12.8,0,23.6-10.8,23.6-23.6
			V303.4h16.8c4.7,0,8.8-4,8.8-8.8v-77.5C419,211.8,413.7,207.8,407.6,209.1z M299.1,79.8c14.1,0,25.6,11.5,25.6,25.6
			c-1.3,0-53.2,0-51.2,0C273.6,91.9,285,79.8,299.1,79.8z M290.4,122.9h16.8v17.5h-16.8V122.9z M196.1,285.9v-56.6l8.8,2.7v53.9
			H196.1z M324.7,458.3h-51.9v-8.8h51.9V458.3z M376.6,426c0,3.4-2.7,6.1-6.1,6.1c-33.7,0-107.8,0-142.1,0c-3.4,0-6.1-2.7-6.1-6.1
			c0-48.5,0-184.6,0-234.4h94.3c4.7,0,8.8-4,8.8-8.8c0-4.7-4-8.8-8.8-8.8h-94.3v-10.8c0-3.4,2.7-6.1,6.1-6.1c49.2,0,93,0,142.1,0
			c3.4,0,6.1,2.7,6.1,6.1C376.6,246.1,376.6,343.1,376.6,426z M402.2,285.9h-8.8V232l8.8-2.7V285.9z"/>
		<path id="XMLID_446_" class="st0" d="M297.8,320.9c13.5,0,24.9-11.5,24.9-24.9c0-12.1-12.1-21.6-17.5-30.3c-1.3-2.7-4-4-7.4-4l0,0
			c-2.7,0-5.4,1.3-7.4,4c-5.4,8.8-17.5,18.2-17.5,30.3C273.6,309.5,284.3,320.9,297.8,320.9z M297.8,284.5c4.7,5.4,7.4,9.4,7.4,11.5
			c0,4-3.4,7.4-7.4,7.4c-4,0-7.4-3.4-7.4-7.4C290.4,293.3,295.1,287.9,297.8,284.5z"/>
		<polygon id="XMLID_30_" class="st0" points="127.4,308.1 139.5,320.9 151.6,308.1 139.5,296 		"/>
		<polygon id="XMLID_29_" class="st0" points="462.2,316.9 450,304.7 437.9,316.9 450,329 		"/>
		
			<rect id="XMLID_28_" x="414.2" y="110.9" transform="matrix(-0.7071 0.7071 -0.7071 -0.7071 805.7478 -95.1001)" class="st0" width="16.8" height="16.8"/>
		<polygon id="XMLID_27_" class="st0" points="166.5,89.9 154.3,102 166.5,114.1 178.6,102 		"/>
		<path id="XMLID_25_" class="st0" d="M447.3,383.6c-3.4,3.4-3.4,8.8,0,12.1c3.4,3.4,8.8,3.4,12.1,0c3.4-3.4,3.4-8.8,0-12.1
			C456.1,380.2,450.7,380.2,447.3,383.6z"/>
		<path id="XMLID_23_" class="st0" d="M133.4,197.7c3.4-3.4,3.4-8.8,0-12.1c-3.4-3.4-8.8-3.4-12.1,0c-3.4,3.4-3.4,8.8,0,12.1
			C124.7,201,130.1,201,133.4,197.7z"/>
		<path id="XMLID_10_" class="st0" d="M172.5,391.6c-3.4,3.4-3.4,8.8,0,12.1c3.4,3.4,8.8,3.4,12.1,0c3.4-3.4,3.4-8.8,0-12.1
			C181.3,388.3,175.9,388.3,172.5,391.6z"/>
		<path id="XMLID_9_" class="st0" d="M459.5,189.6c3.4-3.4,3.4-8.8,0-12.1c-3.4-3.4-8.8-3.4-12.1,0c-3.4,3.4-3.4,8.8,0,12.1
			C450.7,192.9,456.1,192.9,459.5,189.6z"/>
	</g>
</g>
</svg>
