<?xml version="1.0" encoding="utf-8"?>
<!-- Generator: Adobe Illustrator 19.0.0, SVG Export Plug-In . SVG Version: 6.00 Build 0)  -->
<svg version="1.1" id="Layer_1" xmlns="http://www.w3.org/2000/svg" xmlns:xlink="http://www.w3.org/1999/xlink" x="0px" y="0px"
	 viewBox="0 0 577 577" style="enable-background:new 0 0 577 577;" xml:space="preserve">
<style type="text/css">
	.st0{fill:#0058A2;}
</style>
<g id="B_-_78_x2C__wheelbarrow_x2C__Barrow_x2C__farm_x2C__garden_x2C__gardening_x2C__tools">
	<g id="XMLID_393_">
		<g id="XMLID_473_">
			<path id="XMLID_474_" class="st0" d="M227,397.5c-7.3,0-14.6-3.2-20.3-8c-5.7-5.6-8.1-12.9-8.1-20.1c0-7.2,3.3-15.3,8.1-20.1
				c5.7-5.6,13-8.8,20.3-8.8c7.3,0,14.6,3.2,20.3,8.8c5.7,5.6,8.1,12.9,8.1,20.1c0,7.2-3.3,14.5-8.1,20.1l0,0
				C241.6,394.3,234.3,397.5,227,397.5z M227,347.7c-5.7,0-11.4,2.4-15.4,6.4c-4.1,4-6.5,9.6-6.5,15.3c0,5.6,2.4,11.2,6.5,15.3
				c4.1,4,9.7,6.4,15.4,6.4c5.7,0,11.4-2.4,15.4-6.4l0,0c4.1-4,6.5-9.6,6.5-15.3c0-5.6-2.4-11.2-6.5-15.3
				C238.4,350.2,232.7,347.7,227,347.7z M244.9,387.1L244.9,387.1L244.9,387.1z"/>
		</g>
		<g id="XMLID_468_">
			<path id="XMLID_469_" class="st0" d="M227,418.4c-13.8,0-26-4.8-35.7-14.5c-9.7-9.6-14.6-21.7-14.6-35.3
				c0-13.7,4.9-25.7,14.6-35.3c9.8-9.6,21.9-14.5,35.7-14.5c13.8,0,26,4.8,35.8,14.5c9.7,9.6,14.6,21.7,14.6,35.3
				c0,12.9-4.9,25.7-14.6,34.5l0,0C253,413.6,240,418.4,227,418.4z M227,326.1c-11.4,0-21.9,4-30.1,12c-8.1,8-12.2,18.5-12.2,30.5
				c0,11.2,4.9,21.7,12.2,29.7c8.1,8,18.7,12,30.1,12c11.4,0,21.9-4,30.1-12l0,0c8.1-8,12.2-18.5,12.2-29.7c0-11.2-4.9-22.5-13-30.5
				C248.9,330.9,238.4,326.1,227,326.1z M259.5,401.6L259.5,401.6L259.5,401.6z"/>
		</g>
		<g id="XMLID_461_">
			<path id="XMLID_462_" class="st0" d="M379.7,422.4C378.9,422.4,378.9,422.4,379.7,422.4c-2.4,0-4.1-0.8-5.7-0.8
				c-1.6-0.8-3.3-1.6-4.1-2.4c-13-10.4-29.3-26.5-43.1-41c-5.7-5.6-11.4-11.2-16.2-16.1c-2.4,0.8-4.1,1.6-4.9,2.4
				c-6.5,3.2-7.3,3.2-18.7,3.2l0,0c-3.3,0-5.7-1.6-5.7-4.8c-1.6-12.8-8.1-24.9-17.9-33.7c-9.7-8.8-22.7-13.7-35.8-13.7
				c-6.5,0-13,0.8-18.7,3.2c-5.7,2.4-11.4,5.6-16.2,9.6c-1.6,1.6-4.9,1.6-7.3,0L99.4,265c-2.4-0.8-4.1-2.4-4.1-4.8v-14.5
				c0-3.2,2.4-5.6,5.7-5.6h338c3.3,0,5.7,2.4,5.7,5.6v14.5c0,3.2-2.4,5.6-5.7,5.6H435l-4.9,22.5l44.7-20.9c1.6-0.8,4.1,0,4.9,1.6
				l12.2,24.9c0.8,0.8,0.8,1.6,0,2.4c0,0.8-0.8,1.6-1.6,2.4c-15.4,7.2-31.7,14.5-47.1,21.7c-12.2,5.6-24.4,10.4-35.7,16.1l-9.7,70.7
				c-0.8,4-3.3,8-6.5,11.2C387.9,420.8,383.8,422.4,379.7,422.4z M310.7,353.4c0.8,0,1.6,0,2.4,0.8c5.7,5.6,11.4,12,17.9,18.5
				c13.8,14.5,29.3,30.5,42.2,40.2c0.8,0.8,1.6,0.8,2.4,1.6c0.8,0,1.6,0.8,3.3,0.8c2.4,0,5.7-0.8,7.3-2.4c2.4-1.6,3.3-4,4.1-6.4
				l9.7-73.1c0-1.6,0.8-2.4,2.4-2.4c12.2-5.6,25.2-11.2,37.4-16.9c14.6-6.4,29.3-12.9,43.9-20.1l-8.9-18.5l-47.9,22.5
				c-1.6,0.8-2.4,0.8-4.1-0.8c-0.8-0.8-1.6-2.4-1.6-3.2l7.3-32.9c0-1.6,1.6-3.2,3.3-3.2h5.7v-11.2H101.9v11.2l0,0l85.3,63.4
				c4.9-4,11.4-7.2,17.9-9.6c7.3-2.4,13.8-4,21.1-4c15.4,0,30.1,5.6,40.6,15.3c10.6,9.6,17.9,22.5,20.3,36.9c8.9,0,8.9,0,13.8-2.4
				c1.6-0.8,4.1-2.4,7.3-4C309.9,353.4,310.7,353.4,310.7,353.4z M287.9,361.4L287.9,361.4L287.9,361.4z M189.6,322.8L189.6,322.8
				L189.6,322.8z"/>
		</g>
		<g id="XMLID_459_">
			<path id="XMLID_105_" class="st0" d="M370.8,375c-0.8,0-1.6,0-2.4-0.8l-45.5-45c-1.6-1.6-1.6-4,0-4.8c1.6-1.6,4.1-1.6,4.9,0
				l45.5,45c1.6,1.6,1.6,4,0,4.8C373.2,375,371.6,375,370.8,375z"/>
		</g>
		<g id="XMLID_456_">
			<path id="XMLID_104_" class="st0" d="M370.8,375L370.8,375c-2.4,0-4.1-2.4-3.3-4l7.3-51.4c0-1.6,2.4-3.2,4.1-3.2
				c1.6,0,3.2,2.4,3.2,4l-7.3,51.4C374.1,374.2,373.2,375,370.8,375z"/>
		</g>
		<g id="XMLID_445_">
			<path id="XMLID_449_" class="st0" d="M375.7,246.5H144.1c-0.8,0-2.4-0.8-2.4-1.6c-0.8-0.8-0.8-1.6-0.8-3.2
				c10.6-67.5,25.2-100.4,44.7-104.4c14.6-2.4,30.1,11.2,47.1,42.6c17.9,32.1,26.8,38.6,31.7,37.8c5.7,0,9.7-10.4,13.8-20.9
				c6.5-14.5,13-30.5,26.8-31.3c17.1-1.6,40.6,22.5,73.1,73.9c0.8,0.8,0.8,2.4,0,4C378.1,246.5,377.3,246.5,375.7,246.5z
				 M148.2,239.3h221c-28.4-44.2-49.6-65.9-63.4-65.1c-9.7,0.8-15.4,13.7-21.1,26.5c-5.7,12.9-10.6,24.9-20.3,24.9
				c-10.6,0.8-21.9-12-38.2-41.8c-15.4-27.3-28.4-41-39.8-38.6c-8.9,1.6-17.1,13.7-24.4,35.3C157.1,195.9,152.2,215.2,148.2,239.3z"
				/>
		</g>
		<g id="XMLID_430_">
			<path id="XMLID_434_" class="st0" d="M491,303.6c-0.8,0-0.8,0-0.8,0c-0.8,0-1.6-0.8-2.4-1.6l-17.1-36.1c-0.8-0.8-0.8-1.6,0-2.4
				c0-0.8,0.8-1.6,1.6-2.4l33.3-15.3c5.7-2.4,12.2-3.2,17.9-0.8c5.7,1.6,10.6,5.6,13.8,11.2l0,0l0.8,0.8c2.4,5.6,2.4,11.2,0.8,16.9
				c-1.6,5.6-5.7,9.6-10.6,12c-10.6,5.6-21.9,11.2-34.9,17.7C492.7,303.6,491.9,303.6,491,303.6z M478.9,265.8l14.6,29.7
				c11.4-5.6,21.9-10.4,31.7-16.1c3.3-1.6,5.7-4.8,7.3-8c1.6-4,0.8-7.2-0.8-11.2v-0.8c-1.6-3.2-5.7-6.4-9.7-8
				c-4.1-1.6-8.9-1.6-12.2,0.8L478.9,265.8z"/>
		</g>
		<g id="XMLID_421_">
			<path id="XMLID_99_" class="st0" d="M331,272.2H114.1c-1.6,0-3.3-1.6-3.3-3.2c0-1.6,1.6-3.2,3.3-3.2H331c1.6,0,3.3,1.6,3.3,3.2
				C334.2,270.6,332.6,272.2,331,272.2z"/>
		</g>
	</g>
</g>
</svg>
