<?xml version="1.0" encoding="utf-8"?>
<!-- Generator: Adobe Illustrator 19.0.0, SVG Export Plug-In . SVG Version: 6.00 Build 0)  -->
<svg version="1.1" id="Layer_1" xmlns="http://www.w3.org/2000/svg" xmlns:xlink="http://www.w3.org/1999/xlink" x="0px" y="0px"
	 viewBox="0 0 577 577" style="enable-background:new 0 0 577 577;" xml:space="preserve">
<style type="text/css">
	.st0{fill:#0058A2;}
</style>
<g id="B_-_94_x2C__keys_x2C__door_x2C__house_x2C__home">
	<g id="XMLID_163_">
		<g id="XMLID_413_">
			<path id="XMLID_417_" class="st0" d="M300.4,284.3c-43.1,0-78-34.5-78-77.1c0-42.6,34.9-77.1,78-77.1c43.1,0,78,34.5,78,77.1
				C378.4,249.8,343.4,284.3,300.4,284.3z M300.4,137.3c-39,0-70.7,31.3-70.7,69.9c0,38.6,31.7,69.9,70.7,69.9
				c39,0,70.7-31.3,70.7-69.9C371.1,168.6,339.4,137.3,300.4,137.3z"/>
		</g>
		<g id="XMLID_397_">
			<path id="XMLID_402_" class="st0" d="M296.3,489.1L296.3,489.1c-1.6,0-2.4-0.8-3.3-1.6l-21.1-37.8c0-0.8-0.8-0.8-0.8-1.6V363
				h-10.6c-1.6,0-3.3-1.6-3.3-3.2v-29.7c0-1.6,1.6-3.2,3.3-3.2h10.6v-49.8c0-0.8,0.8-2.4,1.6-3.2c0.8-0.8,2.4-0.8,3.2-0.8
				c15.4,5.6,31.7,5.6,47.1,0c0.8,0,2.4,0,3.2,0.8c0.8,0.8,1.6,1.6,1.6,3.2v74.7c0,1.6-0.8,2.4-1.6,3.2l-15.4,9.6h13
				c1.6,0,3.2,1.6,3.2,3.2v20.1c0,0.8-0.8,2.4-1.6,3.2l-19.5,13.7l17.9,1.6c1.6,0,3.2,1.6,3.2,3.2V449c0,0.8,0,1.6-0.8,2.4
				l-28.4,37.7C298.7,488.3,297.1,489.1,296.3,489.1z M279.2,447.3l17.9,32.1l24.4-32.1v-34.5l-24.4-1.6c-1.6,0-2.4-0.8-3.2-2.4
				c-0.8-1.6,0-3.2,1.6-4l26.8-18.5v-14.5h-22.7c-1.6,0-3.2-0.8-3.2-2.4c-0.8-1.6,0-3.2,1.6-4l24.4-15.3v-67.5
				c-13.8,4-28.4,4-42.2,0v48.2c0,1.6-1.6,3.2-3.2,3.2h-10.6v22.5h10.6c1.6,0,3.2,1.6,3.2,3.2v87.5H279.2z"/>
		</g>
		<g id="XMLID_383_">
			<path id="XMLID_385_" class="st0" d="M300.4,213.6c-15.4,0-28.4-12.9-28.4-28.1s13-28.1,28.4-28.1c15.4,0,28.4,12.9,28.4,28.1
				S315.8,213.6,300.4,213.6z M300.4,164.6c-11.4,0-21.1,9.6-21.1,20.9s9.7,20.9,21.1,20.9c11.4,0,21.1-9.6,21.1-20.9
				C321.5,173.5,311.7,164.6,300.4,164.6z"/>
		</g>
		<g id="XMLID_361_">
			<path id="XMLID_369_" class="st0" d="M265.4,278.7c-20.3,0-40.6-8-55.2-22.5c-14.6-14.5-22.7-33.7-22.7-54.6s8.1-40.2,22.7-54.6
				c11.4-11.2,25.2-18.5,41.4-21.7c15.4-2.4,30.9-0.8,44.7,4.8c1.6,0.8,2.4,2.4,2.4,4c0,1.6-1.6,3.2-3.2,3.2
				c-36.6,2.4-65.8,32.9-65.8,69.9c0,28.1,17.1,53,42.2,64.3c1.6,0.8,2.4,2.4,2.4,4c0,1.6-1.6,3.2-3.3,3.2
				C268.7,278.7,267.1,278.7,265.4,278.7z M265.4,131.7c-17.9,0-36.6,7.2-49.6,20.9c-13,12.9-20.3,30.5-21.1,49
				c0,18.5,7.3,36.1,21.1,49.8c10.6,10.4,25.2,17.7,39.8,20.1c-20.3-14.5-33.3-37.7-33.3-63.4c0-35.3,24.4-65.1,57.7-74.7
				C275.2,131.7,270.3,131.7,265.4,131.7z"/>
		</g>
		<g id="XMLID_328_">
			<path id="XMLID_337_" class="st0" d="M63.1,399.2c-0.8,0-2.4-0.8-2.4-1.6c-0.8-0.8-0.8-2.4-0.8-3.2l12.2-41
				c0-0.8,0.8-0.8,0.8-1.6l60.9-60.2l-7.3-7.2c-0.8-0.8-0.8-1.6-0.8-2.4c0-0.8,0-1.6,0.8-2.4l21.1-20.9c1.6-1.6,4.1-1.6,4.9,0
				l7.3,7.2l35.8-35.3c0.8-0.8,1.6-0.8,3.2-0.8c0.8,0,2.4,0.8,2.4,1.6c3.2,7.2,8.1,13.7,13.8,19.3c5.7,5.6,12.2,10.4,19.5,13.7
				c0.8,0.8,1.6,1.6,1.6,2.4c0,0.8,0,2.4-0.8,3.2l-52.8,53c-0.8,0.8-2.4,1.6-3.3,0.8l-17.1-4l9.7,9.6c0.8,0.8,0.8,1.6,0.8,2.4
				c0,0.8,0,1.6-0.8,2.4l-14.6,14.5c-1.6,0.8-2.4,0.8-4.1,0.8l-24.4-4l12.2,13.7c1.6,1.6,0.8,3.2,0,4.8l-28.4,27.3
				c-0.8,0.8-1.6,0.8-2.4,0.8L63.1,399.2C63.9,399.2,63.9,399.2,63.1,399.2z M78.6,356.6L68,391.1l40.6-5.6l25.2-24.1l-16.2-18.5
				c-0.8-0.8-0.8-2.4-0.8-4c0.8-1.6,2.4-2.4,4.1-1.6l32.5,5.6l10.6-10.4l-16.3-16.1c-0.8-0.8-1.6-3.2-0.8-4c0.8-0.8,2.4-3.2,4.1-3.2
				l28.4,6.4l47.9-47.4c-6.5-3.2-12.2-8-17.1-12.9c-4.9-4.8-9.7-10.4-13-16.9l-34.9,34.5c-1.6,1.6-4.1,1.6-4.9,0l-7.3-7.2
				l-16.3,16.1l7.3,7.2c1.6,1.6,1.6,4,0,4.8L78.6,356.6z"/>
		</g>
		<g id="XMLID_312_">
			<path id="XMLID_187_" class="st0" d="M330.4,195.2c-10.6,0-20.3-2.4-30.1-6.4c-1.6-0.8-2.4-3.2-1.6-4.8c0.8-1.6,3.3-2.4,4.9-1.6
				c8.9,4,17.9,5.6,26.8,5.6c36.6,0,66.6-29.7,66.6-65.9S367,56.2,330.4,56.2c-35.8,0-66.6,33.7-66.6,71.5c0,1.6-1.6,3.2-3.2,3.2
				c-1.6,0-3.3-1.6-3.3-3.2c0-41.8,34.9-78.7,73.9-78.7c40.6,0,73.9,32.9,73.9,73.1C404.4,162.2,371.1,195.2,330.4,195.2z"/>
		</g>
	</g>
</g>
</svg>
