<?xml version="1.0" encoding="utf-8"?>
<!-- Generator: Adobe Illustrator 19.0.0, SVG Export Plug-In . SVG Version: 6.00 Build 0)  -->
<svg version="1.1" id="Layer_1" xmlns="http://www.w3.org/2000/svg" xmlns:xlink="http://www.w3.org/1999/xlink" x="0px" y="0px"
	 viewBox="0 0 577 577" style="enable-background:new 0 0 577 577;" xml:space="preserve">
<style type="text/css">
	.st0{fill:#0058A2;}
</style>
<g id="B_-_83_x2C__paint_x2C__Interior_x2C__design_x2C__repair_x2C__wallpaper">
	<g id="XMLID_15_">
		<g id="XMLID_418_">
			<path id="XMLID_419_" class="st0" d="M391,507.6L391,507.6c-0.8,0-1.6,0-1.6,0c-15.4-2.4-27.6-14.5-27.6-29.7
				c0-8.8,4.1-17.7,11.4-22.5H117.2c-0.8,0-2.4,0-3.3,0c-0.8,0-2.4,0-3.3-0.8c-0.8-0.8-1.6-1.6-1.6-2.4V88.4c0-1.6,1.6-3.2,3.3-3.2
				h325.8c1.6,0,3.3,1.6,3.3,3.2v79.5c0,1.6-1.6,3.2-3.3,3.2H319.5c-6.5,0-12.2,5.6-12.2,12v44.2c0,6.4,5.7,12,12.2,12h119.4
				c1.6,0,3.2,1.6,3.2,3.2V457C443,485.1,419.4,507.6,391,507.6z M117.2,448.2H391h0.8c0,0,0,0,0.8,0c1.6,0,3.2,1.6,3.2,3.2
				s-1.6,3.2-3.2,4c-13,0.8-23.6,10.4-23.6,22.5s10.6,21.7,23.6,22.5c0,0,0,0,0.8,0c23.6-0.8,42.2-20.1,42.2-44.2V247.4H319.5
				c-10.6,0-19.5-8.8-19.5-19.3v-44.2c0-10.4,8.9-19.3,19.5-19.3h115.4V92.4H116.4L117.2,448.2C116.4,448.2,117.2,448.2,117.2,448.2
				z"/>
		</g>
		<g id="XMLID_414_">
			<path id="XMLID_415_" class="st0" d="M390.2,507.6h-273c-17.9,0-32.5-13.7-32.5-29.7c0-16.9,14.6-29.7,32.5-29.7H391h0.8
				c0,0,0,0,0.8,0c1.6,0,3.2,1.6,3.2,3.2s-1.6,3.2-3.2,4c-13,0.8-23.6,10.4-23.6,22.5s10.6,21.7,23.6,22.5c1.6,0,3.2,1.6,3.2,4
				c0,1.6-1.6,3.2-3.2,3.2c0,0,0,0-0.8,0C391,507.6,391,507.6,390.2,507.6z M117.2,455.4c-13.8,0-25.2,10.4-25.2,22.5
				c0,12.9,11.4,22.5,25.2,22.5h255.9c-7.3-5.6-11.4-13.7-11.4-22.5c0-8.8,4.1-17.7,11.4-22.5H117.2z"/>
		</g>
		<g id="XMLID_412_">
			<path id="XMLID_249_" class="st0" d="M233.4,489.9H125.3c-1.6,0-3.2-1.6-3.2-3.2c0-1.6,1.6-3.2,3.2-3.2h108.1
				c1.6,0,3.2,1.6,3.2,3.2C236.6,488.3,235.8,489.9,233.4,489.9z"/>
		</g>
		<g id="XMLID_410_">
			<path id="XMLID_248_" class="st0" d="M329.3,489.9h-56.9c-1.6,0-3.3-1.6-3.3-3.2c0-1.6,1.6-3.2,3.3-3.2h56.9
				c1.6,0,3.3,1.6,3.3,3.2C332.5,488.3,330.9,489.9,329.3,489.9z"/>
		</g>
		<g id="XMLID_406_">
			<path id="XMLID_407_" class="st0" d="M421.9,415.2h-34.1c-1.6,0-3.3-1.6-3.3-3.2v-94.8c0-1.6,1.6-3.2,3.3-3.2h34.1
				c1.6,0,3.3,1.6,3.3,3.2v94C425.1,413.6,423.5,415.2,421.9,415.2z M391,408h26.8v-87.5H391V408z"/>
		</g>
		<g id="XMLID_404_">
			<path id="XMLID_245_" class="st0" d="M406.4,320.5c-1.6,0-3.2-1.6-3.2-3.2v-37.7c0-1.6,1.6-3.2,3.2-3.2l116.2-10.4v-56.2h-17.9
				c-1.6,0-3.3-1.6-3.3-3.2s1.6-3.2,3.3-3.2h21.9c1.6,0,3.3,1.6,3.3,3.2v62.6c0,1.6-1.6,3.2-3.3,3.2l-116.2,10.4v34.5
				C410.5,318.9,408.9,320.5,406.4,320.5z"/>
		</g>
		<g id="XMLID_400_">
			<path id="XMLID_401_" class="st0" d="M404.8,399.2c-4.9,0-8.1-4-8.1-8c0-4.8,4.1-8,8.1-8c4.9,0,8.1,4,8.1,8
				C412.9,396,408.9,399.2,404.8,399.2z M404.8,390.4c-0.8,0-0.8,0.8-0.8,0.8c0,0.8,0.8,0.8,0.8,0.8l0.8-0.8
				C405.6,390.4,404.8,390.4,404.8,390.4z"/>
		</g>
		<g id="XMLID_398_">
			<path id="XMLID_242_" class="st0" d="M404.8,196.8H304.1c-1.6,0-3.3-1.6-3.3-3.2c0-1.6,1.6-3.2,3.3-3.2h100.7
				c1.6,0,3.3,1.6,3.3,3.2C408.1,195.2,406.4,196.8,404.8,196.8z"/>
		</g>
		<g id="XMLID_396_">
			<path id="XMLID_241_" class="st0" d="M458.4,196.8H430c-1.6,0-3.2-1.6-3.2-3.2c0-1.6,1.6-3.2,3.2-3.2h28.4c1.6,0,3.2,1.6,3.2,3.2
				C461.7,195.2,460.1,196.8,458.4,196.8z"/>
		</g>
		<g id="XMLID_394_">
			<path id="XMLID_240_" class="st0" d="M151.3,130.1c-1.6,0-3.3-1.6-3.3-3.2v-13.7c0-1.6,1.6-3.2,3.3-3.2c1.6,0,3.3,1.6,3.3,3.2
				v13.7C154.6,128.5,153,130.1,151.3,130.1z"/>
		</g>
		<g id="XMLID_392_">
			<path id="XMLID_239_" class="st0" d="M151.3,192c-1.6,0-3.3-1.6-3.3-3.2v-14.5c0-1.6,1.6-3.2,3.3-3.2c1.6,0,3.3,1.6,3.3,3.2v14.5
				C154.6,190.4,153,192,151.3,192z"/>
		</g>
		<g id="XMLID_390_">
			<path id="XMLID_238_" class="st0" d="M151.3,254.6c-1.6,0-3.3-1.6-3.3-3.2v-13.7c0-1.6,1.6-3.2,3.3-3.2c1.6,0,3.3,1.6,3.3,3.2
				v13.7C154.6,253,153,254.6,151.3,254.6z"/>
		</g>
		<g id="XMLID_388_">
			<path id="XMLID_237_" class="st0" d="M151.3,316.5c-1.6,0-3.3-1.6-3.3-3.2v-13.6c0-1.6,1.6-3.2,3.3-3.2c1.6,0,3.3,1.6,3.3,3.2
				v13.6C154.6,314.9,153,316.5,151.3,316.5z"/>
		</g>
		<g id="XMLID_386_">
			<path id="XMLID_236_" class="st0" d="M151.3,379.1c-1.6,0-3.3-1.6-3.3-3.2v-14.5c0-1.6,1.6-3.2,3.3-3.2c1.6,0,3.3,1.6,3.3,3.2
				v14.5C154.6,377.5,153,379.1,151.3,379.1z"/>
		</g>
		<g id="XMLID_384_">
			<path id="XMLID_235_" class="st0" d="M151.3,441c-1.6,0-3.3-1.6-3.3-3.2v-14.5c0-1.6,1.6-3.2,3.3-3.2c1.6,0,3.3,1.6,3.3,3.2v14.5
				C154.6,439.3,153,441,151.3,441z"/>
		</g>
		<g id="XMLID_382_">
			<path id="XMLID_234_" class="st0" d="M189.5,163.1c-1.6,0-3.2-1.6-3.2-3.2v-14.5c0-1.6,1.6-3.2,3.2-3.2c1.6,0,3.3,1.6,3.3,3.2
				v14.5C192.8,161.5,191.1,163.1,189.5,163.1z"/>
		</g>
		<g id="XMLID_380_">
			<path id="XMLID_233_" class="st0" d="M189.5,224.9c-1.6,0-3.2-1.6-3.2-3.2v-14.5c0-1.6,1.6-3.2,3.2-3.2c1.6,0,3.3,1.6,3.3,3.2
				v14.5C192.8,223.3,191.1,224.9,189.5,224.9z"/>
		</g>
		<g id="XMLID_378_">
			<path id="XMLID_232_" class="st0" d="M189.5,287.5c-1.6,0-3.2-1.6-3.2-3.2v-13.7c0-1.6,1.6-3.2,3.2-3.2c1.6,0,3.3,1.6,3.3,3.2
				v13.7C192.8,285.9,191.1,287.5,189.5,287.5z"/>
		</g>
		<g id="XMLID_376_">
			<path id="XMLID_231_" class="st0" d="M189.5,349.4c-1.6,0-3.2-1.6-3.2-3.2v-14.5c0-1.6,1.6-3.2,3.2-3.2c1.6,0,3.3,1.6,3.3,3.2
				v14.5C192.8,347.8,191.1,349.4,189.5,349.4z"/>
		</g>
		<g id="XMLID_374_">
			<path id="XMLID_230_" class="st0" d="M189.5,412c-1.6,0-3.2-1.6-3.2-3.2v-14.5c0-1.6,1.6-3.2,3.2-3.2c1.6,0,3.3,1.6,3.3,3.2v14.5
				C192.8,410.4,191.1,412,189.5,412z"/>
		</g>
		<g id="XMLID_372_">
			<path id="XMLID_229_" class="st0" d="M234.2,130.1c-1.6,0-3.3-1.6-3.3-3.2v-13.7c0-1.6,1.6-3.2,3.3-3.2c1.6,0,3.2,1.6,3.2,3.2
				v13.7C238.3,128.5,236.6,130.1,234.2,130.1z"/>
		</g>
		<g id="XMLID_370_">
			<path id="XMLID_228_" class="st0" d="M234.2,192c-1.6,0-3.3-1.6-3.3-3.2v-14.5c0-1.6,1.6-3.2,3.3-3.2c1.6,0,3.2,1.6,3.2,3.2v14.5
				C238.3,190.4,236.6,192,234.2,192z"/>
		</g>
		<g id="XMLID_366_">
			<path id="XMLID_227_" class="st0" d="M234.2,254.6c-1.6,0-3.3-1.6-3.3-3.2v-13.7c0-1.6,1.6-3.2,3.3-3.2c1.6,0,3.2,1.6,3.2,3.2
				v13.7C238.3,253,236.6,254.6,234.2,254.6z"/>
		</g>
		<g id="XMLID_362_">
			<path id="XMLID_226_" class="st0" d="M234.2,316.5c-1.6,0-3.3-1.6-3.3-3.2v-13.6c0-1.6,1.6-3.2,3.3-3.2c1.6,0,3.2,1.6,3.2,3.2
				v13.6C238.3,314.9,236.6,316.5,234.2,316.5z"/>
		</g>
		<g id="XMLID_358_">
			<path id="XMLID_225_" class="st0" d="M234.2,379.1c-1.6,0-3.3-1.6-3.3-3.2v-14.5c0-1.6,1.6-3.2,3.3-3.2c1.6,0,3.2,1.6,3.2,3.2
				v14.5C238.3,377.5,236.6,379.1,234.2,379.1z"/>
		</g>
		<g id="XMLID_354_">
			<path id="XMLID_224_" class="st0" d="M234.2,441c-1.6,0-3.3-1.6-3.3-3.2v-14.5c0-1.6,1.6-3.2,3.3-3.2c1.6,0,3.2,1.6,3.2,3.2v14.5
				C238.3,439.3,236.6,441,234.2,441z"/>
		</g>
		<g id="XMLID_350_">
			<path id="XMLID_223_" class="st0" d="M272.4,163.1c-1.6,0-3.3-1.6-3.3-3.2v-14.5c0-1.6,1.6-3.2,3.3-3.2c1.6,0,3.3,1.6,3.3,3.2
				v14.5C276.5,161.5,274.8,163.1,272.4,163.1z"/>
		</g>
		<g id="XMLID_348_">
			<path id="XMLID_222_" class="st0" d="M272.4,224.9c-1.6,0-3.3-1.6-3.3-3.2v-14.5c0-1.6,1.6-3.2,3.3-3.2c1.6,0,3.3,1.6,3.3,3.2
				v14.5C276.5,223.3,274.8,224.9,272.4,224.9z"/>
		</g>
		<g id="XMLID_344_">
			<path id="XMLID_221_" class="st0" d="M272.4,287.5c-1.6,0-3.3-1.6-3.3-3.2v-13.7c0-1.6,1.6-3.2,3.3-3.2c1.6,0,3.3,1.6,3.3,3.2
				v13.7C276.5,285.9,274.8,287.5,272.4,287.5z"/>
		</g>
		<g id="XMLID_340_">
			<path id="XMLID_220_" class="st0" d="M272.4,349.4c-1.6,0-3.3-1.6-3.3-3.2v-14.5c0-1.6,1.6-3.2,3.3-3.2c1.6,0,3.3,1.6,3.3,3.2
				v14.5C276.5,347.8,274.8,349.4,272.4,349.4z"/>
		</g>
		<g id="XMLID_335_">
			<path id="XMLID_219_" class="st0" d="M272.4,412c-1.6,0-3.3-1.6-3.3-3.2v-14.5c0-1.6,1.6-3.2,3.3-3.2c1.6,0,3.3,1.6,3.3,3.2v14.5
				C276.5,410.4,274.8,412,272.4,412z"/>
		</g>
		<g id="XMLID_331_">
			<path id="XMLID_218_" class="st0" d="M319.5,130.1c-1.6,0-3.3-1.6-3.3-3.2v-13.7c0-1.6,1.6-3.2,3.3-3.2c1.6,0,3.3,1.6,3.3,3.2
				v13.7C323.6,128.5,321.9,130.1,319.5,130.1z"/>
		</g>
		<g id="XMLID_327_">
			<path id="XMLID_217_" class="st0" d="M319.5,316.5c-1.6,0-3.3-1.6-3.3-3.2v-13.6c0-1.6,1.6-3.2,3.3-3.2c1.6,0,3.3,1.6,3.3,3.2
				v13.6C323.6,314.9,321.9,316.5,319.5,316.5z"/>
		</g>
		<g id="XMLID_323_">
			<path id="XMLID_216_" class="st0" d="M319.5,379.1c-1.6,0-3.3-1.6-3.3-3.2v-14.5c0-1.6,1.6-3.2,3.3-3.2c1.6,0,3.3,1.6,3.3,3.2
				v14.5C323.6,377.5,321.9,379.1,319.5,379.1z"/>
		</g>
		<g id="XMLID_319_">
			<path id="XMLID_215_" class="st0" d="M319.5,441c-1.6,0-3.3-1.6-3.3-3.2v-14.5c0-1.6,1.6-3.2,3.3-3.2c1.6,0,3.3,1.6,3.3,3.2v14.5
				C323.6,439.3,321.9,441,319.5,441z"/>
		</g>
		<g id="XMLID_315_">
			<path id="XMLID_214_" class="st0" d="M358.5,163.1c-1.6,0-3.2-1.6-3.2-3.2v-14.5c0-1.6,1.6-3.2,3.2-3.2c1.6,0,3.3,1.6,3.3,3.2
				v14.5C361.8,161.5,360.1,163.1,358.5,163.1z"/>
		</g>
		<g id="XMLID_199_">
			<path id="XMLID_213_" class="st0" d="M358.5,287.5c-1.6,0-3.2-1.6-3.2-3.2v-13.7c0-1.6,1.6-3.2,3.2-3.2c1.6,0,3.3,1.6,3.3,3.2
				v13.7C361.8,285.9,360.1,287.5,358.5,287.5z"/>
		</g>
		<g id="XMLID_162_">
			<path id="XMLID_212_" class="st0" d="M358.5,349.4c-1.6,0-3.2-1.6-3.2-3.2v-14.5c0-1.6,1.6-3.2,3.2-3.2c1.6,0,3.3,1.6,3.3,3.2
				v14.5C361.8,347.8,360.1,349.4,358.5,349.4z"/>
		</g>
		<g id="XMLID_26_">
			<path id="XMLID_211_" class="st0" d="M358.5,412c-1.6,0-3.2-1.6-3.2-3.2v-14.5c0-1.6,1.6-3.2,3.2-3.2c1.6,0,3.3,1.6,3.3,3.2v14.5
				C361.8,410.4,360.1,412,358.5,412z"/>
		</g>
		<g id="XMLID_16_">
			<path id="XMLID_19_" class="st0" d="M489.3,247.4H319.5c-10.6,0-19.5-8.8-19.5-19.3v-44.2c0-4.8,1.6-9.6,5.7-13.7
				c4.1-4,8.1-5.6,13.8-5.6h169c10.6,0,19.5,8.8,19.5,19.3v44.2C508.8,238.6,499.9,247.4,489.3,247.4z M319.5,171.9
				c-3.3,0-6.5,1.6-8.1,3.2c-2.4,2.4-3.2,5.6-3.2,8v44.2c0,6.4,5.7,12,12.2,12h169c6.5,0,12.2-5.6,12.2-12v-43.4
				c0-6.4-5.7-12-12.2-12H319.5z"/>
		</g>
	</g>
</g>
</svg>
