<?xml version="1.0" encoding="utf-8"?>
<!-- Generator: Adobe Illustrator 19.0.0, SVG Export Plug-In . SVG Version: 6.00 Build 0)  -->
<svg version="1.1" id="Layer_1" xmlns="http://www.w3.org/2000/svg" xmlns:xlink="http://www.w3.org/1999/xlink" x="0px" y="0px"
	 viewBox="0 0 577 577" style="enable-background:new 0 0 577 577;" xml:space="preserve">
<style type="text/css">
	.st0{fill:#0058A2;}
</style>
<g id="B_-_9_x2C__trowel_x2C__brickwork_x2C__construction_x2C__masonry_x2C__tool">
	<g id="XMLID_442_">
		<g id="XMLID_535_">
			<path id="XMLID_538_" class="st0" d="M252,308H118.8c-11.4,0-25.2-7.2-32.5-17.7c-5.7-8.8-7.3-17.7-4.1-26.5l63.4-161.4
				c1.6-3.2,2.4-6.4,4.1-10.4c5.7-16.1,11.4-32.1,28.4-32.1h5.7c18.7,0,26.8,18.5,34.1,37c0.8,1.6,1.6,3.2,1.6,4.8L287,263
				c3.3,8,2.4,17.7-3.3,25.7C277.2,299.9,263.4,308,252,308z M178.1,67.8c-11.4,0-16.3,10.4-21.9,27.3c-0.8,3.2-2.4,7.2-4.1,10.4
				L88.7,267c-3.3,8,0,15.3,3.2,20.1c5.7,8.8,17.1,15.3,26,15.3h133.2c9.7,0,20.3-6.4,26.8-15.3c3.3-4.8,5.7-11.2,2.4-19.3
				L213,106.4c-0.8-1.6-1.6-3.2-2.4-4.8c-7.3-17.7-13-32.1-27.6-32.1h-4.9V67.8z"/>
		</g>
		<g id="XMLID_527_">
			<path id="XMLID_530_" class="st0" d="M217.1,483.9h-63.4c-0.8,0-1.6-0.8-2.4-0.8c-0.8-0.8-0.8-1.6-0.8-2.4l7.3-112.4
				c0-1.6,1.6-3.2,3.3-3.2h48.8c1.6,0,3.2,1.6,3.2,3.2l7.3,112.4c0,0.8,0,1.6-0.8,2.4C218.7,483.9,217.9,483.9,217.1,483.9z
				 M157.8,476.6H213l-6.5-105.2h-42.2L157.8,476.6z"/>
		</g>
		<g id="XMLID_519_">
			<path id="XMLID_522_" class="st0" d="M195.1,347.3h-20.3c-1.6,0-3.3-1.6-3.3-3.2v-40.2c0-1.6,1.6-3.2,3.3-3.2h20.3
				c1.6,0,3.3,1.6,3.3,3.2v40.2C199.2,345.7,197.6,347.3,195.1,347.3z M178.9,340.1h13V308h-13V340.1z"/>
		</g>
		<g id="XMLID_509_">
			<path id="XMLID_511_" class="st0" d="M145.6,371.4c-0.8,0-1.6,0-2.4-0.8c-0.8-0.8-0.8-1.6-0.8-2.4v-23.3c0-1.6,1.6-3.2,3.3-3.2
				l83.7-0.8c0.8,0,1.6,0,2.4,0.8c0.8,0.8,0.8,1.6,0.8,2.4v23.3c0,1.6-1.6,3.2-3.2,3.2L145.6,371.4L145.6,371.4z M229.3,367.4
				L229.3,367.4L229.3,367.4z M148.8,348.1v16.1l76.4-0.8v-16.1L148.8,348.1z"/>
		</g>
		<g id="XMLID_505_">
			<path id="XMLID_126_" class="st0" d="M242.3,240.5c-1.6,0-2.4-0.8-3.2-2.4l-47.1-106.8c-0.8-1.6,0-4,1.6-4.8
				c1.6-0.8,4.1,0,4.9,1.6l47.1,106.8c0.8,1.6,0,4-1.6,4.8C243.9,240.5,243.1,240.5,242.3,240.5z"/>
		</g>
		<g id="XMLID_497_">
			<path id="XMLID_500_" class="st0" d="M455.1,482.3H319.5c-1.6,0-3.3-1.6-3.3-3.2V130.5c0-1.6,1.6-3.2,3.3-3.2h42.2
				c1.6,0,3.3,1.6,3.3,3.2v184.7h44.7V130.5c0-1.6,1.6-3.2,3.3-3.2h42.2c1.6,0,3.3,1.6,3.3,3.2V479
				C459.2,480.6,457.6,482.3,455.1,482.3z M323.5,475h128.4V133.7h-34.9v184.7c0,1.6-1.6,3.2-3.3,3.2h-52c-1.6,0-3.3-1.6-3.3-3.2
				V133.7h-34.9V475z"/>
		</g>
		<g id="XMLID_490_">
			<path id="XMLID_491_" class="st0" d="M413.7,322.4h-52c-1.6,0-3.3-1.6-3.3-3.2V72.6c0-8,3.3-15.3,8.9-20.9
				c5.7-5.6,13-8.8,21.1-8.8c16.2,0,29.2,12.8,29.2,29.7v245.8C416.9,320.8,415.3,322.4,413.7,322.4z M364.9,315.2h44.7V72.6
				c0-12-9.7-22.5-21.9-22.5c-5.7,0-11.4,2.4-15.4,6.4c-4.1,4-6.5,9.6-6.5,15.3v243.4H364.9z"/>
		</g>
		<g id="XMLID_486_">
			<path id="XMLID_121_" class="st0" d="M424.3,322.4h-73.1c-1.6,0-3.3-1.6-3.3-3.2c0-1.6,1.6-3.2,3.3-3.2h73.1
				c1.6,0,3.3,1.6,3.3,3.2C427.5,320.8,425.9,322.4,424.3,322.4z"/>
		</g>
		<g id="XMLID_478_">
			<path id="XMLID_479_" class="st0" d="M398.3,383.5h-21.1c-1.6,0-3.2-1.6-3.2-3.2v-61c0-1.6,1.6-3.2,3.2-3.2h21.1
				c1.6,0,3.3,1.6,3.3,3.2v61C401.5,381.9,399.9,383.5,398.3,383.5z M380.4,376.2h13.8v-53.8h-13.8V376.2z"/>
		</g>
		<g id="XMLID_471_">
			<path id="XMLID_118_" class="st0" d="M413.7,298.3h-52c-1.6,0-3.3-1.6-3.3-3.2c0-1.6,1.6-3.2,3.3-3.2h52c1.6,0,3.3,1.6,3.3,3.2
				C416.9,296.7,415.3,298.3,413.7,298.3z"/>
		</g>
		<g id="XMLID_465_">
			<path id="XMLID_117_" class="st0" d="M387.7,218.8c-1.6,0-3.3-1.6-3.3-3.2v-96.4c0-1.6,1.6-3.2,3.3-3.2c1.6,0,3.2,1.6,3.2,3.2
				v96.4C390.9,217.2,389.3,218.8,387.7,218.8z"/>
		</g>
		<g id="XMLID_455_">
			<path id="XMLID_116_" class="st0" d="M387.7,267c-1.6,0-3.3-1.6-3.3-3.2v-28.9c0-1.6,1.6-3.2,3.3-3.2c1.6,0,3.2,1.6,3.2,3.2v28.9
				C390.9,265.4,389.3,267,387.7,267z"/>
		</g>
	</g>
</g>
</svg>
