<?xml version="1.0" encoding="utf-8"?>
<!-- Generator: Adobe Illustrator 19.0.0, SVG Export Plug-In . SVG Version: 6.00 Build 0)  -->
<svg version="1.1" id="Layer_1" xmlns="http://www.w3.org/2000/svg" xmlns:xlink="http://www.w3.org/1999/xlink" x="0px" y="0px"
	 viewBox="0 0 577 577" style="enable-background:new 0 0 577 577;" xml:space="preserve">
<style type="text/css">
	.st0{fill:#0058A2;}
</style>
<g id="B_-_85_x2C__wrench_x2C__Adjustable_x2C__building_x2C__construction_x2C__repair">
	<g id="XMLID_868_">
		<g id="XMLID_883_">
			<path id="XMLID_884_" class="st0" d="M468.1,498.8L468.1,498.8c-16.3,0-31.7-6.4-43.1-17.7c-13.8-12.9-19.5-32.1-17.1-50.6
				L201.6,227.4c-0.8-0.8-1.6-2.4-0.8-3.2c0-0.8,0.8-2.4,2.4-2.4c10.6-4,19.5-10.4,27.6-17.7c8.1-8,13.8-16.9,17.9-27.3
				c0.8-0.8,1.6-1.6,2.4-2.4c0.8,0,2.4,0,3.3,0.8L460,378.4c18.7-2.4,38.2,4,51.2,16.9c11.4,11.2,17.9,26.5,17.9,42.6
				c0,16.1-6.5,31.3-17.9,42.6C499.8,492.4,484.4,498.8,468.1,498.8z M210.6,225.8l203.1,200.8c0.8,0.8,0.8,1.6,0.8,3.2
				c-2.4,16.9,3.2,34.5,15.4,45.8c10.6,10.4,23.6,15.3,38.2,15.3c14.6,0,27.6-5.6,38.2-15.3c10.6-10.4,15.4-23.3,15.4-37.8
				c0-14.5-5.7-27.3-15.4-37.8c-12.2-12-30.1-17.7-47.1-15.3c-0.8,0-2.4,0-3.2-0.8L252.8,183.2c-4.1,8.8-10.6,17.7-17.9,24.9
				C228.4,216.1,219.5,221.8,210.6,225.8z"/>
		</g>
		<g id="XMLID_879_">
			<path id="XMLID_880_" class="st0" d="M172.4,234.6c-22.7,0-45.5-8.8-62.6-25.7c-21.9-21.7-30.9-53-23.6-82.7
				c0-1.6,1.6-2.4,3.3-2.4c1.6,0,3.2,0,4.1,1.6l2.4,4l44.7,49l56.1-7.2l7.3-55.4l-49.6-44.2l-4.1-2.4c-1.6-0.8-1.6-2.4-1.6-4
				c0-1.6,1.6-2.4,2.4-3.2c30.1-7.2,61.7,1.6,83.7,23.3c34.9,34.5,34.9,90,0,124.5C217.9,225.8,195.1,234.6,172.4,234.6z M92,135.8
				c-3.3,24.9,4.9,49.8,22.7,68.3c31.7,31.3,83.7,31.3,115.4,0c31.7-31.3,31.7-82.7,0-114.1c-18.7-17.7-43.9-26.5-69.1-22.5
				l49.6,44.2c0.8,0.8,1.6,1.6,0.8,3.2l-8.1,60.2c0,1.6-1.6,3.2-3.3,3.2l-60.9,8c-0.8,0-2.4,0-3.2-0.8L92,135.8z"/>
		</g>
		<g id="XMLID_875_">
			<path id="XMLID_876_" class="st0" d="M468.1,465.9L468.1,465.9c-7.3,0-14.6-3.2-19.5-8c-4.9-4.8-8.1-12-8.1-19.3
				c0-7.2,3.2-14.5,8.1-19.3l0,0c10.6-10.4,28.4-10.4,39,0c4.9,4.8,8.1,12,8.1,19.3c0,7.2-3.3,14.5-8.1,19.3
				C481.9,462.7,475.4,465.9,468.1,465.9z M453.5,424.1c-4.1,4-5.7,8.8-5.7,14.5c0,5.6,2.4,10.4,5.7,13.6c4.1,4,8.9,5.6,14.6,5.6
				l0,0c5.7,0,10.6-2.4,14.6-5.6c4.1-4,5.7-8.8,5.7-14.5s-2.4-10.4-5.7-14.5C474.6,416.1,461.6,416.1,453.5,424.1z"/>
		</g>
		<g id="XMLID_873_">
			<path id="XMLID_202_" class="st0" d="M408.8,408.1c-0.8,0-1.6,0-2.4-0.8L227.6,230.6c-1.6-1.6-1.6-4,0-4.8c1.6-1.6,4.1-1.6,4.9,0
				l178.7,176.7c1.6,1.6,1.6,4,0,4.8C410.4,408.1,409.6,408.1,408.8,408.1z"/>
		</g>
		<g id="XMLID_871_">
			<path id="XMLID_201_" class="st0" d="M421,396c-0.8,0-1.6,0-2.4-0.8L239.8,218.5c-1.6-1.6-1.6-4,0-4.8c1.6-1.6,4.1-1.6,4.9,0
				l178.7,176.7c1.6,1.6,1.6,4,0,4.8C423.4,395.2,421.8,396,421,396z"/>
		</g>
		<g id="XMLID_869_">
			<path id="XMLID_200_" class="st0" d="M434,383.2c-0.8,0-1.6,0-2.4-0.8L252.8,205.7c-1.6-1.6-1.6-4,0-4.8c1.6-1.6,4.1-1.6,4.9,0
				l178.7,176.7c1.6,1.6,1.6,4,0,4.8C435.6,383.2,434.8,383.2,434,383.2z"/>
		</g>
	</g>
</g>
</svg>
