<?xml version="1.0" encoding="utf-8"?>
<!-- Generator: Adobe Illustrator 19.0.0, SVG Export Plug-In . SVG Version: 6.00 Build 0)  -->
<svg version="1.1" id="Layer_1" xmlns="http://www.w3.org/2000/svg" xmlns:xlink="http://www.w3.org/1999/xlink" x="0px" y="0px"
	 viewBox="0 0 577 577" style="enable-background:new 0 0 577 577;" xml:space="preserve">
<style type="text/css">
	.st0{fill:#0058A2;}
</style>
<g id="B_-_90_x2C__hammer_x2C__Construction_x2C__tool_x2C__strong_x2C__carpenter">
	<g id="XMLID_329_">
		<g id="XMLID_367_">
			<path id="XMLID_368_" class="st0" d="M242,263.5L242,263.5c-0.8,0-1.6,0-2.4-0.8l-47.9-47.4c-1.6-1.6-1.6-4,0-4.8l69.9-69.1
				c0.8-0.8,1.6-0.8,2.4-0.8l0,0c0.8,0,1.6,0,2.4,0.8l47.9,47.4c1.6,1.6,1.6,4,0,4.8l-69.9,69.1C243.7,262.7,242.9,263.5,242,263.5z
				 M199.8,212.9l42.2,42.6l64.2-63.4L264,149.4L199.8,212.9z"/>
		</g>
		<g id="XMLID_363_">
			<path id="XMLID_364_" class="st0" d="M207.9,297.2L207.9,297.2c-0.8,0-1.6,0-2.4-0.8L157.5,249c-1.6-1.6-1.6-4,0-4.8l22.7-22.5
				c0.8-0.8,1.6-0.8,2.4-0.8l0,0c0.8,0,1.6,0,2.4,0.8l47.9,47.4c1.6,1.6,1.6,4,0,4.8l-22.7,22.5
				C209.5,297.2,208.7,297.2,207.9,297.2z M164.9,246.6l42.3,42.6l17.9-17.7l-42.2-42.6L164.9,246.6z"/>
		</g>
		<g id="XMLID_359_">
			<path id="XMLID_360_" class="st0" d="M224.2,268.3L224.2,268.3c-0.8,0-1.6,0-2.4-0.8L186,232.2c-1.6-1.6-1.6-4,0-4.8l11.4-11.2
				c0.8-0.8,1.6-0.8,2.4-0.8l0,0c0.8,0,1.6,0,2.4,0.8l35.8,35.3c1.6,1.6,1.6,4,0,4.8l-11.4,11.2
				C226.6,268.3,225.8,268.3,224.2,268.3z M194.1,229.7l30.1,30.5l6.5-6.4l-30.1-30.5L194.1,229.7z"/>
		</g>
		<g id="XMLID_355_">
			<path id="XMLID_356_" class="st0" d="M303.8,186.4c-0.8,0-1.6,0-2.4-0.8l-0.8-0.8c-15.4-15.3-23.6-23.3-39-38.6
				c-0.8-0.8-0.8-1.6-0.8-3.2s0.8-2.4,1.6-2.4c30.9-18.5,62.6-22.5,93.4-11.2c0.8,0.8,1.6,1.6,2.4,2.4c0.8,0.8,0,2.4-0.8,3.2
				L307,184.8C305.4,186.4,304.6,186.4,303.8,186.4z M269.7,144.6c13,12.8,20.3,20.1,34.1,33.7l43.9-43.4
				C321.7,126.9,295.7,130.2,269.7,144.6z"/>
		</g>
		<g id="XMLID_351_">
			<path id="XMLID_352_" class="st0" d="M324.1,295.6c-0.8,0-1.6,0-2.4-0.8l-57.7-57c-1.6-1.6-1.6-4,0-4.8l20.3-20.1
				c0.8-0.8,1.6-0.8,2.4-0.8l0,0c0.8,0,1.6,0,2.4,0.8l57.7,57c1.6,1.6,1.6,4,0,4.8l-20.3,20.1C326.5,295.6,325.7,295.6,324.1,295.6
				L324.1,295.6z M272.1,235.4l52.8,52.2l15.4-15.3l-52.8-52.2L272.1,235.4z"/>
		</g>
		<g id="XMLID_346_">
			<path id="XMLID_347_" class="st0" d="M252.6,219.3L252.6,219.3c-4.9,0-9.7-1.6-13-5.6c-3.2-3.2-4.9-8-4.9-12.8s1.6-8.8,4.9-12.8
				c3.3-3.2,8.1-5.6,13-5.6l0,0c4.9,0,8.9,1.6,13,5.6c3.3,3.2,4.9,8,4.9,12.8s-1.6,8.8-4.9,12.8
				C262.3,217.7,257.5,219.3,252.6,219.3z M252.6,191.2c-2.4,0-5.7,0.8-7.3,3.2l0,0c-1.6,1.6-3.3,4.8-3.3,7.2c0,3.2,0.8,5.6,3.3,7.2
				c1.6,1.6,4.9,3.2,7.3,3.2c3.3,0,5.7-0.8,7.3-3.2c1.6-1.6,3.2-4.8,3.2-7.2c0-2.4-0.8-5.6-3.2-7.2
				C258.3,192,255.9,191.2,252.6,191.2L252.6,191.2z M242.9,192L242.9,192L242.9,192z"/>
		</g>
		<g id="XMLID_342_">
			<path id="XMLID_343_" class="st0" d="M328.2,322.1c-0.8,0-1.6,0-2.4-0.8l-14.6-14.5c-1.6-1.6-1.6-4,0-4.8l43.1-42.6
				c0.8-0.8,1.6-0.8,2.4-0.8l0,0c0.8,0,1.6,0,2.4,0.8l14.6,14.5c1.6,1.6,1.6,4,0,4.8l-43.1,42.6C329.8,321.3,329,322.1,328.2,322.1
				L328.2,322.1z M318.4,303.6l9.7,9.6l37.4-36.9l-9.7-9.6L318.4,303.6z"/>
		</g>
		<g id="XMLID_338_">
			<path id="XMLID_339_" class="st0" d="M497.2,484.3c-11.4,0-21.9-4-29.2-12c-25.2-24.9-54.4-59.4-82.9-93.2
				c-19.5-23.3-37.4-45-54.4-63.5c-1.6-1.6-1.6-3.2,0-4.8l33.3-32.9c1.6-1.6,3.3-1.6,4.9,0c18.7,16.9,41.4,35.3,64.2,54.6
				c33.3,28.1,68.2,56.2,93.4,81.1c16.2,16.1,16.2,42.6,0,58.6C518.3,479.5,507.7,484.3,497.2,484.3z M337.9,314.1
				c16.3,18.5,34.1,38.6,52.8,61c28.4,33.7,57.7,67.5,82.1,92.4c6.5,6.4,15.4,9.6,24.4,9.6c8.9,0,17.9-3.2,24.4-9.6
				c13-13.7,13-34.5,0-48.2c-24.4-24.1-59.3-53-92.6-81.1C406.2,319.7,385,302,367.2,286L337.9,314.1z"/>
		</g>
		<g id="XMLID_336_">
			<path id="XMLID_294_" class="st0" d="M351.7,461.9H106.4c-1.6,0-3.3-1.6-3.3-3.2c0-1.6,1.6-3.2,3.3-3.2h245.4
				c1.6,0,3.3,1.6,3.3,3.2C355,460.2,354.2,461.9,351.7,461.9z"/>
		</g>
		<g id="XMLID_334_">
			<path id="XMLID_293_" class="st0" d="M420,487.6H250.2c-1.6,0-3.3-1.6-3.3-3.2c0-1.6,1.6-3.2,3.3-3.2H420c1.6,0,3.3,1.6,3.3,3.2
				C423.2,486,422.4,487.6,420,487.6z"/>
		</g>
		<g id="XMLID_332_">
			<path id="XMLID_292_" class="st0" d="M459,487.6h-21.1c-1.6,0-3.3-1.6-3.3-3.2c0-1.6,1.6-3.2,3.3-3.2H459c1.6,0,3.3,1.6,3.3,3.2
				C462.2,486,460.6,487.6,459,487.6z"/>
		</g>
		<g id="XMLID_330_">
			<path id="XMLID_291_" class="st0" d="M177,486.8H96.6c-1.6,0-3.3-1.6-3.3-3.2s1.6-3.2,3.3-3.2H177c1.6,0,3.3,1.6,3.3,3.2
				S179.5,486.8,177,486.8z"/>
		</g>
	</g>
</g>
</svg>
