<?xml version="1.0" encoding="utf-8"?>
<!-- Generator: Adobe Illustrator 19.0.0, SVG Export Plug-In . SVG Version: 6.00 Build 0)  -->
<svg version="1.1" id="Layer_1" xmlns="http://www.w3.org/2000/svg" xmlns:xlink="http://www.w3.org/1999/xlink" x="0px" y="0px"
	 viewBox="0 0 577 577" style="enable-background:new 0 0 577 577;" xml:space="preserve">
<style type="text/css">
	.st0{fill:#0058A2;}
</style>
<g id="XMLID_353_">
	<g id="XMLID_437_">
		<path id="XMLID_438_" class="st0" d="M272.7,500.7L170.4,398.5l102.2-102.2l102.2,102.2L272.7,500.7z M181.8,398.5l90.9,90.9
			l90.9-90.9l-90.9-90.9L181.8,398.5z"/>
	</g>
	<g id="XMLID_426_">
		<path id="XMLID_429_" class="st0" d="M157.2,385.2L55,283l102.2-102.2L259.4,283L157.2,385.2z M66.3,283l90.9,90.9l90.9-90.9
			l-90.9-90.9L66.3,283z"/>
	</g>
	<g id="XMLID_405_">
		<path id="XMLID_409_" class="st0" d="M386.2,383.3L284,281.1l102.2-102.2l102.2,102.2L386.2,383.3z M295.4,281.1l90.9,90.9
			l90.9-90.9l-90.9-90.9L295.4,281.1z"/>
	</g>
	<g id="XMLID_375_">
		<path id="XMLID_377_" class="st0" d="M270.8,267.8L168.5,165.6L270.8,63.4L373,165.6L270.8,267.8z M179.9,165.6l90.9,90.9
			l90.9-90.9l-90.9-90.9L179.9,165.6z"/>
	</g>
</g>
</svg>
